<?xml version="1.0" encoding="UTF-8" standalone="no"?>
<svg width="105px" height="41px" viewBox="0 0 105 41" version="1.1" xmlns="http://www.w3.org/2000/svg" xmlns:xlink="http://www.w3.org/1999/xlink">
    <!-- Generator: Sketch 42 (36781) - http://www.bohemiancoding.com/sketch -->
    <title>Page 1</title>
    <desc>Created with Sketch.</desc>
    <defs>
        <polygon id="path-1" points="0 41 105 41 105 0 0 0"></polygon>
    </defs>
    <g id="home" stroke="none" stroke-width="1" fill="none" fill-rule="evenodd">
        <g id="tablet" transform="translate(-332.000000, -3317.000000)">
            <g id="Page-1" transform="translate(332.000000, 3317.000000)">
                <polygon id="Fill-1" fill="#1E252B" points="0 41 105 41 105 0 0 0"></polygon>
                <polygon id="Fill-2" fill="#FFFFFF" points="12.4044375 27.875408 15.7942969 27.875408 15.7942969 13.096712 12.4044375 13.096712"></polygon>
                <polygon id="Fill-3" fill="#FFFFFF" points="15.6679688 15.723336 20.0976562 15.723336 20.0976562 13.096712 15.6679688 13.096712"></polygon>
                <polygon id="Fill-4" fill="#FFFFFF" points="15.6679688 27.875408 20.0976562 27.875408 20.0976562 25.248784 15.6679688 25.248784"></polygon>
                <polygon id="Fill-5" fill="#FFFFFF" points="15.6679688 21.299664 20.0976562 21.299664 20.0976562 19.021704 15.6679688 19.021704"></polygon>
                <g id="Group-22">
                    <path d="M20.0976563,27.8755064 C20.0976563,27.8755064 24.7941094,28.0234344 24.7941094,23.5134344 C24.7941094,23.5134344 24.9991875,19.8440984 22.0253906,19.8440984 C22.0253906,19.8440984 24.28125,19.6764904 24.28125,17.0318264 C24.28125,14.3874904 22.4355469,13.0968104 20.0976563,13.0968104 C17.7597656,13.0968104 17.8828125,14.4101224 17.8828125,14.4101224 L19.5441094,15.7234344 L20.0976563,15.7234344 C20.0976563,15.7234344 21.1437188,15.7234344 21.1437188,17.2610984 C21.1437188,18.7984344 20.5281563,19.0214744 19.8312188,19.0214744 C19.133625,19.0214744 18.8671875,20.1606184 18.8671875,20.1606184 L20.0976563,21.2994344 C20.0976563,21.2994344 21.65625,21.2790984 21.65625,23.3290984 C21.65625,25.3790984 20.015625,25.2488824 19.6054688,25.2488824 C19.1953125,25.2488824 19.3183594,26.3014344 19.3183594,26.3014344 L20.0976563,27.8755064 Z" id="Fill-6" fill="#FFFFFF"></path>
                    <path d="M28.5135375,21.2995 C28.5135375,21.2995 28.8314906,19.02154 31.1152406,19.02154 C33.3989906,19.02154 33.3701156,21.2995 33.3701156,21.2995 L28.5135375,21.2995 Z M31.0574906,16.857068 C25.3720688,16.857068 25.3773188,22.535076 25.3773188,22.535076 C25.3773188,22.535076 24.9871781,28.18422 31.0578188,28.18422 C31.0578188,28.18422 36.1165219,28.473188 36.1165219,24.254452 L33.5148188,24.254452 C33.5148188,24.254452 33.6014438,25.843284 31.1444438,25.843284 C31.1444438,25.843284 28.5424125,26.017452 28.5424125,23.272092 L36.2031469,23.272092 C36.2031469,23.272092 37.0411781,16.857068 31.0574906,16.857068 L31.0574906,16.857068 Z" id="Fill-8" fill="#FFFFFF"></path>
                    <path d="M84.8690062,21.2995 C84.8690062,21.2995 85.1869594,19.02154 87.4710375,19.02154 C89.7544594,19.02154 89.7255844,21.2995 89.7255844,21.2995 L84.8690062,21.2995 Z M87.4129594,16.857068 C81.7275375,16.857068 81.7324594,22.535076 81.7324594,22.535076 C81.7324594,22.535076 81.3426469,28.18422 87.4132875,28.18422 C87.4132875,28.18422 92.4719906,28.473188 92.4719906,24.254452 L89.8702875,24.254452 C89.8702875,24.254452 89.9569125,25.843284 87.4999125,25.843284 C87.4999125,25.843284 84.8978812,26.017452 84.8978812,23.272092 L92.5589437,23.272092 C92.5589437,23.272092 93.3966469,16.857068 87.4129594,16.857068 L87.4129594,16.857068 Z" id="Fill-10" fill="#FFFFFF"></path>
                    <mask id="mask-2" fill="white">
                        <use xlink:href="#path-1"></use>
                    </mask>
                    <g id="Clip-13"></g>
                    <polygon id="Fill-12" fill="#FFFFFF" mask="url(#mask-2)" points="27.8768438 15.787624 33.9763594 15.787624 33.9763594 13.967224 27.8768438 13.967224"></polygon>
                    <polygon id="Fill-14" fill="#FFFFFF" mask="url(#mask-2)" points="37.359 27.867864 40.3652812 27.867864 40.3652812 13.09704 37.359 13.09704"></polygon>
                    <polygon id="Fill-15" fill="#FFFFFF" mask="url(#mask-2)" points="47.2740188 20.3534496 44.3254875 20.3534496 44.3254875 20.8159296 44.3254875 27.8679296 47.2740188 27.8679296"></polygon>
                    <path d="M44.2879172,20.3534496 C44.2879172,20.3534496 44.2879172,19.2264416 42.4172766,19.2264416 C40.6831359,19.2264416 40.3651828,20.5850176 40.3651828,21.8848816 C40.3651828,23.1850736 40.1627297,19.0240656 40.1627297,19.0240656 C40.1627297,19.0240656 41.1165891,16.8569696 43.6605422,16.8569696 C46.2041672,16.8569696 47.2741828,18.6950816 47.2741828,20.5000656 C47.2741828,22.3050496 46.2514172,21.4332256 46.2514172,21.4332256 L44.2879172,20.9687776 L44.2879172,20.3534496 Z" id="Fill-16" fill="#FFFFFF" mask="url(#mask-2)"></path>
                    <polygon id="Fill-17" fill="#FFFFFF" mask="url(#mask-2)" points="59.7125156 27.867864 62.7187969 27.867864 62.7187969 17.015 59.7125156 17.015"></polygon>
                    <polygon id="Fill-18" fill="#FFFFFF" mask="url(#mask-2)" points="69.6275344 20.3534496 66.6793312 20.3534496 66.6793312 20.8159296 66.6793312 27.8679296 69.6275344 27.8679296"></polygon>
                    <path d="M66.6414328,20.3534496 C66.6414328,20.3534496 66.6414328,19.2264416 64.7707922,19.2264416 C63.0366516,19.2264416 62.7186984,20.5850176 62.7186984,21.8848816 C62.7186984,23.1850736 62.5162453,19.0240656 62.5162453,19.0240656 C62.5162453,19.0240656 63.4704328,16.8569696 66.0140578,16.8569696 C68.5576828,16.8569696 69.6276984,18.6950816 69.6276984,20.5000656 C69.6276984,22.3050496 68.6049328,21.4332256 68.6049328,21.4332256 L66.6414328,20.9687776 L66.6414328,20.3534496 Z" id="Fill-19" fill="#FFFFFF" mask="url(#mask-2)"></path>
                    <path d="M55.3986563,24.5288896 C55.3986563,24.5288896 55.1443594,26.1567536 52.9816875,26.1567536 C52.9816875,26.1567536 51.200625,26.2328496 51.200625,24.7069936 C51.200625,24.7069936 51.0480469,23.5373456 53.5414688,23.1558816 C54.5333906,23.0791296 54.9917813,23.0118896 55.3986563,22.5497376 L55.3986563,24.5288896 Z M58.7061563,27.8679296 C58.7061563,27.8679296 58.1467031,27.5809296 58.1467031,25.8258016 L58.1467031,19.4967136 C58.1467031,19.4967136 58.5023906,16.8569696 53.7449063,16.8569696 C48.9874219,16.8569696 48.6825938,19.2408736 48.657,20.6640656 L51.8371875,20.6640656 C51.8371875,20.6640656 51.7102031,18.7806896 53.7199688,18.7806896 C53.7199688,18.7806896 55.42425,18.6455536 55.42425,20.3534496 C55.42425,20.3534496 55.42425,21.4761936 53.8725469,21.5782016 C52.3205156,21.6798816 48.3767813,21.6549536 48.3767813,24.8595136 C48.3767813,24.8595136 48.2750625,28.2418496 51.9005156,28.2418496 C51.9005156,28.2418496 54.3811406,28.2930176 55.42425,26.7668336 L55.42425,27.8679296 L58.7061563,27.8679296 Z" id="Fill-20" fill="#FFFFFF" mask="url(#mask-2)"></path>
                    <path d="M81.2612391,23.6851752 L78.1496297,23.6851752 C78.1496297,23.6851752 78.2260828,25.8739192 76.1900672,25.8739192 C74.1540516,25.8739192 73.6162547,23.6937032 73.6162547,22.4413992 C73.6162547,21.1890952 74.0385516,19.0767752 76.2284578,19.0767752 C78.4183641,19.0767752 78.3415828,20.9585112 78.3415828,20.9585112 L81.0689578,20.9585112 C81.0689578,20.9585112 81.2609109,16.8568712 76.2668484,16.8568712 C71.2731141,16.8568712 70.7353172,20.8997992 70.7353172,22.5227432 C70.7353172,24.1456872 71.5802391,28.2424072 76.1903953,28.2424072 C80.8005516,28.2424072 81.2612391,24.5301032 81.2612391,23.6851752" id="Fill-21" fill="#FFFFFF" mask="url(#mask-2)"></path>
                </g>
            </g>
        </g>
    </g>
</svg>