<?xml version="1.0" encoding="UTF-8" standalone="no"?>
<svg width="649px" height="615px" viewBox="0 0 649 615" version="1.1" xmlns="http://www.w3.org/2000/svg" xmlns:xlink="http://www.w3.org/1999/xlink">
    <!-- Generator: Sketch 42 (36781) - http://www.bohemiancoding.com/sketch -->
    <title>Group 6</title>
    <desc>Created with Sketch.</desc>
    <defs>
        <polygon id="path-1" points="0 614.453295 0 0.522087298 648.786899 0.522087298 648.786899 614.453295 324.393449 614.453295"></polygon>
    </defs>
    <g id="home" stroke="none" stroke-width="1" fill="none" fill-rule="evenodd">
        <g id="Group-6">
            <path d="M119.690712,203.3005 C119.690712,203.3005 150.657732,278.905196 232.652659,259.751258 C314.647587,240.597319 341.566969,164.422282 341.566969,164.422282 C341.566969,164.422282 310.721032,124.407704 380.633589,70.4241021 C450.546146,16.4404999 435.488589,25.9548182 435.488589,25.9548182 L452.189417,33.0667927 L439.570821,95.7740136 L454.152694,90.844024 L504.860595,5.34478277 L511.187191,21.2754328 L522.447926,79.6878162 L515.585105,109.30232 L612.922999,203.520859 L645.282476,291.487256 L619.470139,368.448671 L602.4839,388.142705 L550.664628,395.254679 L470.823252,377.677819 L464.496656,390.320369 L478.477438,439.093132 L507.295232,475.53444 L495.498272,505.118698 L450.260735,511.409728 L394.303014,500.979408 L374.276723,444.783575 L311.421585,471.39515 L289.181202,534.167182 L306.738261,573.89659 L305.094989,596.053458 L260.679089,606.483778 L214.654511,592.199338 L188.050809,540.929175 L193.015219,448.577205 L159.548696,441.74608 L133.48122,421.991555 L114.531704,438.712905 L105.199651,464.758459 L106.847247,493.297093 L101.878513,523.736862 L72.5244935,541.279156 L15.7408119,506.985267 L4.76548756,481.194638 L15.7408119,448.827809 L52.7836127,393.452921 L65.0908519,324.389859 L99.6644209,291.772426 L87.3269109,265.160852 L82.1073614,222.994534 L96.1227382,203.209764 L119.690712,203.3005 Z" id="Path-2" stroke="#979797" fill="#1E252B"></path>
            <path d="M502.011034,214.013503 C500.984343,219.95911 495.999071,224.570632 489.72779,224.570632 C482.72089,224.570632 477.010585,218.982182 477.010585,211.970357 C477.010585,205.005803 482.72089,199.370082 489.72779,199.370082 C490.770358,199.370082 491.685912,199.727238 492.670265,199.995106 C498.221804,201.323939 502.413243,206.072021 502.413243,211.970357 C502.413243,212.726689 502.111586,213.34646 502.011034,214.013503 M473.009666,154.116238 C465.859876,153.633026 459.006451,154.830551 452.814553,157.624777 C450.523021,158.733013 448.252659,159.79923 446.188693,161.306641 C425.046272,176.87972 424.70757,211.928339 445.405444,239.565958 C466.082149,267.208829 499.962945,276.967608 521.100073,261.394529 C521.915075,260.774758 522.497219,259.976408 523.243422,259.309365 C528.329246,254.871169 531.959709,249.282718 534.230072,242.806629 C540.310833,225.416253 536.373421,202.521464 521.878029,183.177231 C508.705693,165.566259 490.188213,155.319015 473.009666,154.116238" id="Fill-1" fill="#57C1E8"></path>
            <mask id="mask-2" fill="white">
                <use xlink:href="#path-1"></use>
            </mask>
            <g id="Clip-4"></g>
            <path d="M629.234426,333.66517 C617.051734,333.087417 601.587866,333.176706 600.275395,340.009952 C597.359382,355.136585 598.465456,379.13961 598.465456,379.13961 C598.465456,379.13961 596.983634,380.914889 593.384924,382.821475 C461.317563,409.576707 429.315506,318.491266 425.93907,307.403654 C425.266958,303.495941 421.879937,300.52839 417.767881,300.52839 C413.184818,300.52839 409.464387,304.210254 409.464387,308.774505 C409.464387,309.399529 409.554355,310.019301 409.691953,310.639073 L409.665492,310.639073 C409.845427,311.348134 420.884999,350.125888 458.819635,377.500892 C459.920417,431.17943 473.902463,449.147559 485.2384,463.701691 C491.049258,471.154709 495.60586,477.053045 497.717455,487.037673 C498.569503,491.071442 497.352292,492.983281 496.055698,494.312113 C486.566747,504.070893 450.648447,504.118163 421.678832,499.191503 C399.049298,495.33106 397.906178,491.875045 395.429419,484.327485 L394.937242,482.867345 C392.645711,476.081369 387.014788,459.442073 384.109359,450.79153 C397.932639,440.318437 408.617632,426.258022 409.903642,407.533561 L409.856012,407.533561 C409.866596,407.270946 409.935395,407.045097 409.935395,406.782482 C409.935395,402.254996 406.225549,398.573132 401.663655,398.573132 C397.249943,398.573132 393.672402,402.0344 393.460713,406.378054 L393.397206,406.378054 C391.317364,436.773133 352.043796,451.989055 328.429908,458.423126 C336.669895,442.051697 344.422998,423.195929 344.846376,409.660744 L344.825207,409.660744 C344.825207,409.576707 344.846376,409.529436 344.846376,409.440147 C344.846376,404.870643 341.157698,401.230797 336.601096,401.230797 C332.12917,401.230797 328.509291,404.739336 328.376986,409.177532 L328.308187,409.177532 C327.895394,422.30829 317.131017,445.024501 307.329825,462.903341 L306.837649,462.99263 L304.874235,466.537934 C303.048419,469.867895 301.354908,473.061295 299.767242,476.165406 C297.888504,479.274769 296.21087,481.979706 294.845477,484.106888 L295.554635,484.553334 C273.200296,530.647546 279.222842,546.709089 287.674519,558.999479 L288.510689,560.239022 C288.881145,560.816775 289.373321,561.478566 289.934297,562.324186 C293.284272,567.114287 303.466504,581.6264 299.788411,589.121437 C297.438665,593.869519 288.299001,597.062919 274.666241,597.861269 C224.511868,600.786802 206.671793,572.839297 206.015557,571.77308 C194.092185,551.236575 197.373361,491.47587 198.961027,462.724762 C201.04087,424.971207 220.685592,402.522864 223.781541,399.192904 C225.527974,397.685493 226.655217,395.463769 226.655217,392.937411 C226.655217,388.415178 222.94537,384.686042 218.351723,384.686042 C215.949055,384.686042 213.779245,385.704989 212.260377,387.34896 C209.614267,390.053896 191.610133,409.440147 184.836091,443.249222 C161.455061,438.238525 147.398924,425.281093 140.444946,416.940436 C139.820464,416.142086 139.23832,415.427773 138.724974,414.765982 C137.248445,413.479168 135.348538,412.680818 133.236942,412.680818 C131.617522,412.680818 130.109239,413.122012 128.82323,413.920362 C128.352222,414.319537 127.817708,414.765982 127.304363,415.165158 C116.799305,423.595104 98.9380611,440.675594 95.0853246,461.884394 C92.4127533,476.611852 95.6092544,486.638498 98.1601047,494.753307 C101.36719,504.827224 102.976025,509.927211 91.8411935,521.997003 C80.833375,533.930236 59.611571,527.054971 53.3667509,524.61265 C33.7537819,517.075595 16.5434811,500.877492 16.5434811,490.052495 C16.5434811,464.321462 26.4346411,448.659095 37.8764217,430.51764 C49.095929,412.722837 61.5008937,392.538236 64.5386282,360.950885 C67.3487973,331.711313 92.1216811,309.441548 105.29931,299.50419 C106.01376,298.973708 106.696456,298.485244 107.320938,297.996779 C108.771007,296.531387 109.681269,294.488241 109.681269,292.271769 C109.681269,290.764358 109.242014,289.388255 108.538149,288.148711 C108.072434,287.570958 107.553796,286.903915 107.029866,286.236873 C97.0857839,273.373982 80.3517829,246.356135 92.2116489,222.662996 C97.3186416,212.457771 102.716706,206.470145 107.029866,206.338838 C110.173445,206.202278 117.434372,209.001755 129.669985,229.228375 C143.921935,252.832225 186.868304,283.579207 241.452265,265.878946 C271.268635,256.204203 289.77553,248.000106 341.919778,186.285544 C349.498238,195.513841 357.17725,200.661098 357.812316,201.055021 C359.241215,202.210527 361.029986,202.919588 363.019861,202.919588 C367.602924,202.919588 371.31277,199.237724 371.31277,194.66822 C371.31277,191.47482 369.502831,188.722613 366.851428,187.346509 L366.862013,187.304491 C366.660909,187.215202 346.471088,173.863847 343.459814,151.326215 C341.327049,135.44325 348.31278,118.404779 364.205318,100.746536 C422.67377,35.8175643 438.052962,33.1126282 441.02719,33.5538217 C441.572289,34.4887316 443.662716,39.5256903 440.222773,56.9580844 C428.733362,115.080071 415.296414,139.345711 389.047001,149.24105 C385.416538,150.12869 382.691044,153.364108 382.691044,157.224551 C382.691044,161.841325 386.42206,165.52319 391.005123,165.52319 C392.264671,165.52319 393.439544,165.255323 394.524449,164.719588 C420.752694,155.008079 435.459774,133.84655 445.652591,103.057549 C546.109519,117.165235 615.321178,203.807227 629.488452,278.521239 C633.378234,299.015726 633.17713,317.650898 629.234426,333.66517 L629.234426,333.66517 Z M500.27889,23.9316023 L500.432365,23.6164641 C500.823989,22.8233664 501.32675,21.9567364 501.877141,21.0901063 C502.020031,21.846438 502.157628,22.7340772 502.289934,23.7057533 C503.528313,32.9340499 505.756338,41.5635839 507.910272,49.9042413 C513.165447,70.2674205 517.309256,86.5495602 505.745754,102.96826 C492.520495,97.2905201 478.485526,92.7630348 463.757277,89.6116529 L500.27889,23.9316023 Z M520.839167,110.15341 C534.890012,88.3721094 529.322596,66.7641343 523.924531,45.8232018 C521.892318,37.9499994 519.801891,29.8089295 518.685233,21.5312998 C517.981368,16.3210151 516.113214,2.41291642 505.586987,0.684908695 C495.865178,-0.917043758 488.990584,9.5980671 485.704115,16.1424368 L453.485077,74.0858449 C454.501183,69.5583596 455.501413,64.9468374 456.44872,60.1094663 C459.343565,45.5133159 461.656265,25.328715 448.536851,18.8526252 C432.42204,10.8848814 404.415609,31.4476481 351.86386,89.8375019 C332.621347,111.219628 324.264931,132.643772 327.053931,153.500668 C327.964193,160.244625 330.00699,166.32154 332.600178,171.731412 C278.296704,236.592104 261.499196,242.096517 236.308227,250.258596 C190.858638,265.033325 155.485436,240.011353 143.86372,220.798428 C134.97279,206.07097 122.652501,189.347637 106.363046,189.920138 C95.2176301,190.366584 85.7392633,198.665223 77.3934317,215.346537 C62.8980399,244.312989 78.266648,274.392929 90.2905729,291.431401 C74.519756,299.724787 51.5568115,318.711863 48.0480693,359.574781 C45.6771546,387.170382 35.0821293,403.983004 23.862622,421.772555 C12.1297692,440.407726 0,459.620651 0,490.052495 C0,510.594253 24.3971362,531.08874 47.3759574,539.917861 C56.7431875,543.557707 65.6235334,545.332986 73.7576762,545.332986 C86.0885499,545.332986 96.583023,541.209928 104.06093,533.042597 C121.615226,514.013502 117.534924,501.14536 113.946798,489.78988 C111.724066,482.778056 109.42195,475.545634 111.364195,464.809927 C113.671603,452.162381 123.414581,440.806901 131.686321,433.133287 C138.444487,439.567358 156.316315,454.205527 182.645112,459.57338 C182.576313,460.329712 182.486345,461.038773 182.444007,461.837123 C179.961956,507.001678 178.42192,557.134911 191.731854,580.071719 C192.599778,581.531859 212.895444,614.453295 267.479405,614.453295 C270.104347,614.453295 272.82984,614.411277 275.629425,614.232698 C296.570741,613.035173 309.330285,607.178855 314.659551,596.306588 C322.587297,580.161008 309.219148,561.084643 303.519427,552.917312 C303.02725,552.255521 302.625041,551.677768 302.3128,551.189304 C296.78243,543.111262 289.373321,532.244246 314.082699,484.374756 C315.252279,482.426151 316.559458,480.204427 317.961896,477.762106 C327.413802,475.944809 349.529991,470.844823 369.746273,459.930537 C372.799884,468.980255 377.266518,482.200302 379.235224,488.05662 C383.876502,502.164306 388.613039,510.242349 418.88454,515.384353 C424.46254,516.319263 441.138327,518.892892 459.031324,518.892892 C477.792246,518.892892 497.886807,516.098667 507.968486,505.714863 C513.647039,499.858545 515.711005,492.226949 513.91165,483.707713 C511.037974,469.999202 504.570881,461.705816 498.320769,453.675044 C488.78948,441.431925 478.141532,427.723414 475.760033,387.879443 C494.558,397.548933 518.251271,404.119564 548.078225,404.119564 C563.118716,404.119564 579.736288,402.433575 598.020909,398.662421 L600.344194,397.8168 C639.236722,376.345385 656.22475,330.603077 645.751446,275.501165 C633.918041,213.166832 589.246408,145.821801 520.839167,110.15341 Z" id="Fill-3" fill="#57C1E8" mask="url(#mask-2)"></path>
        </g>
    </g>
</svg>