<?xml version="1.0" encoding="UTF-8" standalone="no"?>
<svg width="70px" height="67px" viewBox="0 0 70 67" version="1.1" xmlns="http://www.w3.org/2000/svg" xmlns:xlink="http://www.w3.org/1999/xlink">
    <!-- Generator: Sketch 42 (36781) - http://www.bohemiancoding.com/sketch -->
    <title>Group Copy</title>
    <desc>Created with Sketch.</desc>
    <defs>
        <polygon id="path-1" points="0 66.9406537 0 0.296817309 69.7681286 0.296817309 69.7681286 66.9406537 34.8840643 66.9406537"></polygon>
    </defs>
    <g id="Symbols" stroke="none" stroke-width="1" fill="none" fill-rule="evenodd">
        <g id="footer-992" transform="translate(-461.000000, -733.000000)">
            <g id="Group-17" transform="translate(339.000000, 489.000000)">
                <g id="Group-Copy" transform="translate(122.000000, 244.000000)">
                    <path d="M53.9843984,23.4718682 C53.8739919,24.1172794 53.3378943,24.6178722 52.6635041,24.6178722 C51.9100081,24.6178722 51.2959431,24.0112313 51.2959431,23.2500794 C51.2959431,22.4940588 51.9100081,21.8822866 52.6635041,21.8822866 C52.7756179,21.8822866 52.8740732,21.9210569 52.9799268,21.9501346 C53.5769187,22.0943828 54.0276504,22.6097995 54.0276504,23.2500794 C54.0276504,23.3321811 53.9952114,23.399459 53.9843984,23.4718682 M50.8656992,16.9698636 C50.0968374,16.9174097 49.3598455,17.0474042 48.6939919,17.3507246 C48.4475691,17.4710266 48.2034228,17.5867673 47.9814715,17.7504007 C45.7078943,19.440899 45.6714715,23.2455182 47.8972439,26.2456539 C50.1207398,29.2463598 53.7641545,30.3057008 56.0371626,28.6152024 C56.1248049,28.5479246 56.1874065,28.4612616 56.2676504,28.3888524 C56.814561,27.9070746 57.2049675,27.3004337 57.4491138,26.5974372 C58.1030163,24.7096665 57.6796016,22.2243773 56.1208211,20.1245104 C54.7043171,18.2127933 52.7130163,17.1004283 50.8656992,16.9698636" id="Fill-1" fill="#FFFFFF"></path>
                    <mask id="mask-2" fill="white">
                        <use xlink:href="#path-1"></use>
                    </mask>
                    <g id="Clip-4"></g>
                    <path d="M67.6655285,36.4603692 C66.3554472,36.3976526 64.6925203,36.4073452 64.5513821,37.1491119 C64.2378049,38.7911474 64.356748,41.3967385 64.356748,41.3967385 C64.356748,41.3967385 64.1973984,41.5894497 63.8104065,41.7964146 C49.608374,44.7007649 46.1669919,34.8132023 45.8039024,33.6096131 C45.731626,33.1854206 45.3673984,32.8632852 44.9252033,32.8632852 C44.4323577,32.8632852 44.0322764,33.2629612 44.0322764,33.7584226 C44.0322764,33.8262706 44.0419512,33.8935484 44.056748,33.9608263 L44.0539024,33.9608263 C44.073252,34.0377967 45.2604065,38.2472232 49.3397561,41.2188514 C49.4581301,47.0457969 50.9617073,48.9962842 52.1807317,50.5761733 C52.8056098,51.3852179 53.2956098,52.0254977 53.5226829,53.1093552 C53.6143089,53.5472313 53.4834146,53.7547664 53.3439837,53.8990146 C52.3235772,54.9583556 48.4610569,54.963487 45.3457724,54.4286851 C42.9122764,54.009624 42.7893496,53.6344644 42.5230081,52.8151571 L42.4700813,52.6566551 C42.2236585,51.9200197 41.6181301,50.1137806 41.3056911,49.1747416 C42.7921951,48.03786 43.9412195,46.5115652 44.0795122,44.4789761 L44.0743902,44.4789761 C44.0755285,44.4504685 44.0829268,44.425952 44.0829268,44.3974444 C44.0829268,43.9059741 43.6839837,43.5062981 43.1934146,43.5062981 C42.7187805,43.5062981 42.334065,43.8820277 42.3113008,44.3535428 L42.3044715,44.3535428 C42.080813,47.6530079 37.8574797,49.304736 35.3181301,50.0031713 C36.2042276,48.2260099 37.0379675,46.179167 37.0834959,44.7098873 L37.0812195,44.7098873 C37.0812195,44.7007649 37.0834959,44.6956335 37.0834959,44.685941 C37.0834959,44.1899094 36.6868293,43.7947946 36.1968293,43.7947946 C35.715935,43.7947946 35.3266667,44.1756556 35.312439,44.6574334 L35.3050407,44.6574334 C35.2606504,46.0828115 34.1030894,48.5487155 33.0491057,50.4895103 L32.9961789,50.4992029 L32.7850407,50.8840549 C32.5886992,51.2455308 32.4065854,51.5921828 32.2358537,51.9291421 C32.0338211,52.2666717 31.8534146,52.5602995 31.7065854,52.7912108 L31.7828455,52.8396736 C29.3789431,57.8433208 30.0265854,59.5868432 30.9354472,60.9209971 L31.0253659,61.0555528 C31.0652033,61.1182694 31.1181301,61.1901085 31.1784553,61.2819028 C31.5386992,61.8018808 32.6336585,63.3772086 32.2381301,64.1908144 C31.9854472,64.7062311 31.0026016,65.052883 29.5365854,65.139546 C24.1431707,65.4571203 22.2247154,62.4233456 22.1541463,62.3076049 C20.8719512,60.0783136 21.2247967,53.591133 21.3955285,50.4701251 C21.619187,46.3718781 23.7317073,43.9350518 24.0646341,43.5735759 C24.252439,43.4099425 24.3736585,43.1687686 24.3736585,42.8945258 C24.3736585,42.4036256 23.9747154,41.9988182 23.4807317,41.9988182 C23.2223577,41.9988182 22.9890244,42.1094276 22.8256911,42.2878849 C22.5411382,42.5815128 20.6050407,44.685941 19.8765854,48.3560044 C17.3622764,47.8120801 15.8507317,46.4055171 15.1029268,45.5001169 C15.0357724,45.4134539 14.9731707,45.3359134 14.9179675,45.2640743 C14.759187,45.1243873 14.554878,45.0377243 14.3278049,45.0377243 C14.1536585,45.0377243 13.9914634,45.085617 13.8531707,45.17228 C13.8025203,45.2156115 13.7450407,45.2640743 13.6898374,45.3074058 C12.5601626,46.2224985 10.6394309,48.0766303 10.225122,50.3789009 C9.93772358,51.977605 10.2814634,53.0660237 10.5557724,53.9469073 C10.9006504,55.0404574 11.0736585,55.5940742 9.87626016,56.9042817 C8.69252033,58.1996653 6.4104065,57.4533374 5.73886179,57.188217 C3.6297561,56.37005 1.77902439,54.6117036 1.77902439,53.436622 C1.77902439,50.6434511 2.84268293,48.9432602 4.07308943,46.9739578 C5.2795935,45.0422855 6.61357724,42.8511943 6.9402439,39.4223049 C7.24243902,36.248273 9.90642276,33.8308318 11.3234959,32.7521057 C11.4003252,32.6945204 11.4737398,32.6414963 11.5408943,32.5884723 C11.6968293,32.4294001 11.7947154,32.2076112 11.7947154,31.9670074 C11.7947154,31.803374 11.7474797,31.6539944 11.6717886,31.5194387 C11.6217073,31.4567221 11.565935,31.3843129 11.5095935,31.3119037 C10.4402439,29.9156033 8.64073171,26.9827454 9.91609756,24.4107932 C10.4652846,23.3029894 11.0457724,22.653017 11.5095935,22.6387632 C11.8476423,22.6239393 12.6284553,22.9278299 13.9442276,25.1234823 C15.4768293,27.6857419 20.095122,31.0234071 25.964878,29.1019975 C29.1712195,28.051779 31.1613821,27.1612027 36.7687805,20.4619258 C37.5837398,21.4636816 38.4095122,22.0224298 38.4778049,22.0651911 C38.6314634,22.1906244 38.8238211,22.2675948 39.0378049,22.2675948 C39.5306504,22.2675948 39.9295935,21.8679188 39.9295935,21.3718872 C39.9295935,21.0252353 39.7349593,20.726476 39.4498374,20.5770964 L39.4509756,20.5725352 C39.4293496,20.5628426 37.2582114,19.1135182 36.9343902,16.6669993 C36.7050407,14.942862 37.4562602,13.0932914 39.1652846,11.176443 C45.4527642,4.12823354 47.1065854,3.83460566 47.4264228,3.88249837 C47.4850407,3.98398528 47.7098374,4.53076031 47.3399187,6.42309223 C46.1043902,12.7323857 44.6594309,15.3664843 41.8366667,16.4406493 C41.4462602,16.5370048 41.1531707,16.888218 41.1531707,17.3072791 C41.1531707,17.808442 41.5543902,18.2081181 42.0472358,18.2081181 C42.1826829,18.2081181 42.3090244,18.1790403 42.4256911,18.1208849 C45.2461789,17.0666753 46.8277236,14.769536 47.9238211,11.4273095 C58.7265854,12.9587357 66.1693496,22.3639503 67.6928455,30.4743515 C68.1111382,32.6990816 68.0895122,34.7219781 67.6655285,36.4603692 L67.6655285,36.4603692 Z M53.7981301,2.83798132 L53.8146341,2.80377225 C53.856748,2.71767941 53.910813,2.62360446 53.97,2.52952951 C53.9853659,2.61163128 54.0001626,2.70798684 54.0143902,2.81346482 C54.147561,3.81522052 54.3871545,4.75197898 54.6187805,5.65737913 C55.1839024,7.86785543 55.6295122,9.63532423 54.3860163,11.417617 C52.9638211,10.8012835 51.4545528,10.3098131 49.8707317,9.96772239 L53.7981301,2.83798132 Z M69.4417073,30.1465146 C68.169187,23.3799598 63.3653659,16.0694808 56.0091057,12.1975838 C57.5200813,9.83316671 56.9213821,7.48756456 56.3408943,5.21437163 C56.1223577,4.35971494 55.897561,3.47598054 55.7774797,2.57742221 C55.7017886,2.0118322 55.5008943,0.50207175 54.3689431,0.314491997 C53.3234959,0.140595874 52.5842276,1.28203863 52.230813,1.99244705 L48.7660976,8.28235537 C48.8753659,7.79088502 48.9829268,7.29029224 49.0847967,6.76518296 C49.3960976,5.18073271 49.6447967,2.98964155 48.2339837,2.28664509 C46.5010569,1.42172568 43.4893496,3.65386772 37.8381301,9.9922389 C35.7688618,12.3133245 34.8702439,14.6389714 35.1701626,16.9030419 C35.2680488,17.6351161 35.4877236,18.294781 35.7665854,18.8820368 C29.9269919,25.9228343 28.1206504,26.5203528 25.4117073,27.4063678 C20.5242276,29.0102032 16.7203252,26.2940027 15.4705691,24.2083896 C14.5144715,22.6096855 13.1895935,20.794324 11.4378862,20.8564705 C10.2393496,20.9049334 9.2200813,21.8057723 8.32260163,23.6165726 C6.76382114,26.7609566 8.41650407,30.0262127 9.7095122,31.8757832 C8.01357724,32.776052 5.54422764,34.8371487 5.16691057,39.2729252 C4.91195122,42.2684998 3.77260163,44.0935538 2.56609756,46.024656 C1.30439024,48.0475526 0,50.1331658 0,53.436622 C0,55.6664834 2.62357724,57.8912135 5.09463415,58.8496377 C6.10195122,59.2447525 7.05691057,59.4374636 7.93162602,59.4374636 C9.25764228,59.4374636 10.3861789,58.9898949 11.1903252,58.1033098 C13.0780488,56.0376519 12.6392683,54.6407814 12.2534146,53.4081144 C12.0143902,52.6469625 11.7668293,51.8618643 11.9756911,50.6964752 C12.2238211,49.323551 13.2715447,48.0908841 14.1610569,47.2578931 C14.8878049,47.9563284 16.8096748,49.5453399 19.6409756,50.1280344 C19.6335772,50.2101362 19.6239024,50.2871066 19.6193496,50.3737696 C19.352439,55.2765 19.1868293,60.7185934 20.6181301,63.2084438 C20.7114634,63.3669459 22.8939837,66.9406537 28.7637398,66.9406537 C29.0460163,66.9406537 29.3391057,66.9360925 29.6401626,66.9167074 C31.8921138,66.7867129 33.2642276,66.1509943 33.8373171,64.9707813 C34.6898374,63.2181364 33.2522764,61.1473471 32.6393496,60.260762 C32.5864228,60.1889229 32.5431707,60.1262063 32.5095935,60.0731822 L32.4065854,59.9192414 C31.914878,59.1962897 31.1181301,58.0166468 33.7752846,52.8202885 C33.9010569,52.6087624 34.041626,52.3675884 34.192439,52.1024681 C35.2088618,51.9051958 37.5871545,51.3515789 39.7611382,50.1668047 C40.0895122,51.1491753 40.5698374,52.5842459 40.7815447,53.2199645 L40.8304878,53.3739053 C41.2806504,54.7513907 41.79,55.6282833 45.0452846,56.1864613 C45.645122,56.2879482 47.438374,56.5673224 49.3625203,56.5673224 C51.38,56.5673224 53.5408943,56.2640019 54.6250407,55.1368129 C55.2356911,54.5010943 55.4576423,53.6726646 55.2641463,52.7478793 C54.955122,51.2597846 54.2596748,50.3595158 53.587561,49.4877546 C52.5626016,48.1587321 51.417561,46.6706374 51.1614634,42.3454702 C53.1829268,43.3951186 55.730813,44.1083778 58.9382927,44.1083778 C60.5556911,44.1083778 62.3426829,43.9253592 64.3089431,43.5159906 L64.4409756,43.4920443 L64.5587805,43.4241963 C68.7411382,41.0934181 70.5679675,36.1279711 69.4417073,30.1465146 L69.4417073,30.1465146 Z" id="Fill-3" fill="#FFFFFF" mask="url(#mask-2)"></path>
                </g>
            </g>
        </g>
    </g>
</svg>