<?xml version="1.0" encoding="UTF-8" standalone="no"?>
<svg width="225px" height="50px" viewBox="0 0 225 50" version="1.1" xmlns="http://www.w3.org/2000/svg" xmlns:xlink="http://www.w3.org/1999/xlink">
    <!-- Generator: Sketch 42 (36781) - http://www.bohemiancoding.com/sketch -->
    <title>Page 1</title>
    <desc>Created with Sketch.</desc>
    <defs>
        <polygon id="path-1" points="0 49.1616406 224.965 49.1616406 224.965 0 0 0"></polygon>
    </defs>
    <g id="home" stroke="none" stroke-width="1" fill="none" fill-rule="evenodd">
        <g id="tablet" transform="translate(-17.000000, -2882.000000)">
            <g id="Page-1" transform="translate(17.000000, 2882.000000)">
                <path d="M64.7391906,20.2933594 C67.4891906,21.6326563 68.7916906,24.0327344 68.7916906,26.8953906 C68.7416906,32.52625 65.1741906,37.0963281 58.2766906,37.0963281 L29.1366906,37.0963281 L42.4566906,20.2473438 L42.4566906,20.1480469 L54.6991906,4.78125 L56.8766906,4.78125 C62.7141906,4.78125 67.3916906,9.12125 67.3916906,14.7085156 C67.3916906,16.6460156 66.3791906,19.0000781 64.7391906,20.2933594 Z M50.7991906,12.7564844 L50.7991906,16.7961719 L55.0216906,16.7961719 C57.6741906,16.7961719 57.6741906,12.7564844 54.9841906,12.7564844 L50.7991906,12.7564844 Z M57.6966906,29.7580469 C61.1691906,29.7580469 61.1216906,24.2628125 57.6491906,24.2628125 L50.7991906,24.2628125 L50.7991906,29.7580469 L57.6966906,29.7580469 Z" id="Fill-1" fill="#1E252B"></path>
                <path d="M73.3255216,48.7517188 C73.3255216,49.1900781 72.9630216,49.5485156 72.5030216,49.5654688 L72.0830216,49.5654688 C71.6055216,49.5654688 71.2230216,49.1997656 71.2230216,48.7517188 L71.2230216,43.8474219 C71.2230216,43.3969531 71.6055216,43.03125 72.0830216,43.03125 L72.5030216,43.03125 C72.9630216,43.0409375 73.3255216,43.4066406 73.3255216,43.8474219 L73.3255216,44.8258594 C73.3255216,45.0365625 73.2305216,45.1358594 73.1455216,45.1746094 L72.6480216,45.3925781 L72.6480216,43.9564063 C72.6480216,43.7626562 72.4855216,43.6076563 72.2755216,43.6076563 C72.0730216,43.6076563 71.9105216,43.7626562 71.9105216,43.9564063 L71.9105216,48.6330469 C71.9105216,48.8340625 72.0730216,48.9890625 72.2755216,48.9890625 C72.4855216,48.9890625 72.6480216,48.8340625 72.6480216,48.6330469 L72.6480216,47.7732813 C72.6480216,47.5625781 72.7430216,47.4608594 72.8280216,47.4148438 C72.8855216,47.3882031 73.1530216,47.2767969 73.3255216,47.2041406 L73.3255216,48.7517188 Z" id="Fill-3" fill="#1E252B"></path>
                <path d="M80.7040468,43.03125 C81.1615468,43.050625 81.5365468,43.4066406 81.5365468,43.845 L81.5365468,48.7589844 C81.5265468,49.1997656 81.1615468,49.5460938 80.7040468,49.5654688 L80.1765468,49.5654688 C79.7090468,49.5654688 79.3265468,49.1997656 79.3165468,48.7589844 L79.3165468,43.845 C79.3165468,43.3969531 79.6990468,43.03125 80.1765468,43.03125 L80.7040468,43.03125 Z M80.4740468,48.9890625 C80.6740468,48.9890625 80.8365468,48.8340625 80.8365468,48.630625 L80.8365468,43.9636719 C80.8365468,43.7626563 80.6740468,43.6076563 80.4740468,43.6076563 L80.3690468,43.6076563 C80.1690468,43.6173438 80.0065468,43.7723438 80.0065468,43.9636719 L80.0065468,48.630625 C80.0065468,48.824375 80.1690468,48.979375 80.3690468,48.9890625 L80.4740468,48.9890625 Z" id="Fill-5" fill="#1E252B"></path>
                <path d="M89.6100719,49.4371094 L89.2950719,49.4371094 C88.9200719,49.4371094 88.8650719,49.15375 88.8350719,49.0253906 L88.1000719,45.86 L88.1000719,49.4371094 L87.4100719,49.4371094 L87.4100719,43.03125 L87.7275719,43.03125 C88.1100719,43.03125 88.1750719,43.205625 88.2125719,43.3872656 L88.9200719,46.7197656 L88.9200719,43.03125 L89.6100719,43.03125 L89.6100719,49.4371094 Z" id="Fill-7" fill="#1E252B"></path>
                <path d="M95.5948921,49.4371094 L95.2998921,49.4371094 L95.2498921,49.4371094 C94.9073921,49.4371094 94.8498921,49.0447656 94.8398921,48.9890625 L93.8848921,43.03125 L94.4098921,43.03125 C94.4573921,43.03125 94.5723921,43.0675781 94.6098921,43.2782812 L95.2498921,47.2961719 L95.9298921,43.03125 L96.6173921,43.03125 L95.5948921,49.4371094 Z" id="Fill-9" fill="#1E252B"></path>
                <path d="M104.100917,48.7880469 C104.023417,48.9527344 103.910917,49.2094531 103.880917,49.2627344 C103.833417,49.3475 103.728417,49.4371094 103.508417,49.4371094 L101.978417,49.4371094 L101.978417,43.2153125 C101.988417,43.1135937 102.073417,43.03125 102.188417,43.03125 L103.975917,43.03125 L103.745917,43.5083594 C103.708417,43.5907031 103.603417,43.69 103.383417,43.69 L102.828417,43.69 C102.733417,43.69 102.665917,43.7553906 102.665917,43.8474219 L102.665917,45.7485938 L103.698417,45.7485938 C103.623417,45.9157031 103.508417,46.1796875 103.478417,46.2353906 C103.430917,46.3177344 103.335917,46.4097656 103.115917,46.4097656 L102.828417,46.4097656 C102.743417,46.4097656 102.665917,46.4824219 102.665917,46.5647656 L102.665917,48.7880469 L104.100917,48.7880469 Z" id="Fill-11" fill="#1E252B"></path>
                <path d="M111.476942,49.4371094 L111.476942,47.0951563 C111.476942,46.7827344 111.304442,46.6834375 111.121942,46.6834375 L110.759442,46.6834375 L110.759442,49.4371094 L110.071942,49.4371094 L110.071942,43.03125 L111.324442,43.03125 C111.781942,43.03125 112.164442,43.3872656 112.164442,43.8353125 L112.164442,45.8139844 C112.164442,45.8139844 112.194442,46.3153125 111.916942,46.3807031 C112.184442,46.5090625 112.164442,46.98375 112.164442,46.98375 L112.164442,49.4371094 L111.476942,49.4371094 Z M111.121942,46.0610156 C111.304442,46.0610156 111.476942,45.9859375 111.476942,45.6953125 L111.476942,43.9733594 C111.476942,43.7360156 111.304442,43.6439844 111.121942,43.6439844 L110.759442,43.6439844 L110.759442,46.0610156 L111.121942,46.0610156 Z" id="Fill-13" fill="#1E252B"></path>
                <path d="M117.97231,44.7047656 L117.97231,43.9636719 C117.97231,43.7626563 117.80981,43.6052344 117.60981,43.6052344 C117.40731,43.6052344 117.24481,43.7626563 117.24481,43.9636719 L117.24481,44.5764063 C117.24481,44.9517969 117.54231,45.4361719 117.54231,45.4361719 L118.36481,46.9183594 C118.69981,47.5044531 118.66981,47.9355469 118.66981,47.9355469 L118.66981,48.7492969 C118.66981,49.1973438 118.28731,49.5654688 117.80981,49.5654688 L117.37981,49.5654688 C116.92231,49.5460938 116.55731,49.1900781 116.54731,48.7492969 L116.54731,48.0905469 C116.54731,47.8798438 116.65231,47.7805469 116.73981,47.7345313 C116.79731,47.7151563 117.07481,47.5964844 117.24481,47.5238281 L117.24481,48.6403125 C117.24481,48.8316406 117.40731,48.9866406 117.60981,48.9866406 C117.80981,48.9866406 117.97231,48.8316406 117.97231,48.630625 L117.97231,47.8992188 C117.97231,47.5238281 117.67731,47.0297656 117.67731,47.0297656 L116.85481,45.5548438 C116.51981,44.9711719 116.54731,44.5400781 116.54731,44.5400781 L116.54731,43.8813281 C116.54731,43.4332813 116.92981,43.03125 117.40731,43.03125 L117.83981,43.03125 C118.29731,43.0385156 118.66981,43.4429688 118.66981,43.8813281 L118.66981,44.1283594 C118.66981,44.3390625 118.56481,44.4383594 118.47981,44.484375 C118.42231,44.5134375 118.15481,44.6321094 117.97231,44.7047656" id="Fill-15" fill="#1E252B"></path>
                <path d="M125.050288,43.03125 C125.250288,43.03125 125.327788,43.1765625 125.327788,43.2879687 L125.327788,49.4371094 L124.840288,49.4371094 C124.677788,49.4371094 124.647788,49.3450781 124.640288,49.2990625 L124.640288,43.03125 L125.050288,43.03125 Z" id="Fill-17" fill="#1E252B"></path>
                <path d="M132.502608,42.4260544 C132.960108,42.4454294 133.335108,42.801445 133.335108,43.2398044 L133.335108,48.1537887 C133.325108,48.59457 132.960108,48.9408981 132.502608,48.9602731 L131.975108,48.9602731 C131.507608,48.9602731 131.125108,48.59457 131.115108,48.1537887 L131.115108,43.2398044 C131.115108,42.7917575 131.497608,42.4260544 131.975108,42.4260544 L132.502608,42.4260544 Z M132.272608,48.3838669 C132.472608,48.3838669 132.635108,48.2288669 132.635108,48.0254294 L132.635108,43.3584762 C132.635108,43.1574606 132.472608,43.0024606 132.272608,43.0024606 L132.167608,43.0024606 C131.967608,43.0121481 131.805108,43.1671481 131.805108,43.3584762 L131.805108,48.0254294 C131.805108,48.2191794 131.967608,48.3741794 132.167608,48.3838669 L132.272608,48.3838669 Z M132.377608,42.2056637 C132.407608,42.2056637 132.627608,42.2153512 132.712608,41.9949606 L132.912608,41.5008981 C132.942608,41.4282419 132.847608,41.4379294 132.847608,41.4379294 L132.330108,41.4379294 L131.957608,42.2056637 L132.377608,42.2056637 Z" id="Fill-19" fill="#1E252B"></path>
                <path d="M141.408633,49.4371094 L141.093633,49.4371094 C140.718633,49.4371094 140.663633,49.15375 140.633633,49.0253906 L139.898633,45.86 L139.898633,49.4371094 L139.208633,49.4371094 L139.208633,43.03125 L139.526133,43.03125 C139.908633,43.03125 139.973633,43.205625 140.011133,43.3872656 L140.718633,46.7197656 L140.718633,43.03125 L141.408633,43.03125 L141.408633,49.4371094 Z" id="Fill-21" fill="#1E252B"></path>
                <path d="M155.486978,49.4371094 L155.191978,49.4371094 L155.141978,49.4371094 C154.799478,49.4371094 154.741978,49.0447656 154.731978,48.9890625 L153.776978,43.03125 L154.301978,43.03125 C154.349478,43.03125 154.464478,43.0675781 154.501978,43.2782812 L155.141978,47.2961719 L155.821978,43.03125 L156.509478,43.03125 L155.486978,49.4371094 Z" id="Fill-23" fill="#1E252B"></path>
                <path d="M163.993004,48.7880469 C163.915504,48.9527344 163.803004,49.2094531 163.773004,49.2627344 C163.725504,49.3475 163.620504,49.4371094 163.400504,49.4371094 L161.870504,49.4371094 L161.870504,43.2153125 C161.880504,43.1135937 161.965504,43.03125 162.080504,43.03125 L163.868004,43.03125 L163.640504,43.5083594 C163.600504,43.5907031 163.495504,43.69 163.275504,43.69 L162.720504,43.69 C162.625504,43.69 162.558004,43.7553906 162.558004,43.8474219 L162.558004,45.7485938 L163.590504,45.7485938 C163.515504,45.9157031 163.400504,46.1796875 163.373004,46.2353906 C163.323004,46.3177344 163.228004,46.4097656 163.008004,46.4097656 L162.720504,46.4097656 C162.635504,46.4097656 162.558004,46.4824219 162.558004,46.5647656 L162.558004,48.7880469 L163.993004,48.7880469 Z" id="Fill-25" fill="#1E252B"></path>
                <path d="M171.971529,43.03125 C172.181529,43.03125 172.249029,43.1765625 172.249029,43.2879687 L172.249029,49.4371094 L171.559029,49.4371094 L171.559029,46.6446875 C171.551529,46.5623438 171.484029,46.499375 171.396529,46.499375 L170.651529,46.499375 L170.651529,49.4371094 L169.964029,49.4371094 L169.964029,43.2879687 C169.964029,43.1765625 170.029029,43.03125 170.241529,43.03125 L170.651529,43.03125 L170.651529,45.6202344 C170.651529,45.8042969 170.729029,45.8503125 170.891529,45.8503125 L171.559029,45.8503125 L171.559029,43.03125 L171.971529,43.03125 Z" id="Fill-27" fill="#1E252B"></path>
                <path d="M178.467554,43.03125 C178.667554,43.03125 178.745054,43.1765625 178.745054,43.2879687 L178.745054,49.4371094 L178.257554,49.4371094 C178.095054,49.4371094 178.065054,49.3450781 178.057554,49.2990625 L178.057554,43.03125 L178.467554,43.03125 Z" id="Fill-29" fill="#1E252B"></path>
                <path d="M186.634874,48.7517188 C186.634874,49.1900781 186.272374,49.5485156 185.812374,49.5654688 L185.392374,49.5654688 C184.914874,49.5654688 184.532374,49.1997656 184.532374,48.7517188 L184.532374,43.8474219 C184.532374,43.3969531 184.914874,43.03125 185.392374,43.03125 L185.812374,43.03125 C186.272374,43.0409375 186.634874,43.4066406 186.634874,43.8474219 L186.634874,44.8258594 C186.634874,45.0365625 186.539874,45.1358594 186.454874,45.1746094 L185.957374,45.3925781 L185.957374,43.9564063 C185.957374,43.7626562 185.794874,43.6076563 185.584874,43.6076563 C185.382374,43.6076563 185.219874,43.7626562 185.219874,43.9564063 L185.219874,48.6330469 C185.219874,48.8340625 185.382374,48.9890625 185.584874,48.9890625 C185.794874,48.9890625 185.957374,48.8340625 185.957374,48.6330469 L185.957374,47.7732813 C185.957374,47.5625781 186.052374,47.4608594 186.137374,47.4148438 C186.194874,47.3882031 186.462374,47.2767969 186.634874,47.2041406 L186.634874,48.7517188 Z" id="Fill-31" fill="#1E252B"></path>
                <path d="M193.207194,48.6863281 C193.207194,49.1246875 192.834694,49.4540625 192.384694,49.46375 L192.384694,49.4734375 L191.859694,49.4734375 C191.389694,49.4734375 191.007194,49.134375 191.007194,48.6863281 L191.007194,43.2128906 C191.017194,43.1135937 191.102194,43.03125 191.209694,43.03125 L191.697194,43.03125 L191.697194,48.5676563 C191.697194,48.7589844 191.849694,48.9139844 192.049694,48.9139844 L192.154694,48.9139844 C192.354694,48.9139844 192.517194,48.7589844 192.517194,48.5676563 L192.517194,43.03125 L193.207194,43.03125 L193.207194,48.6863281 Z" id="Fill-33" fill="#1E252B"></path>
                <path d="M201.338219,48.7880469 C201.260719,48.9527344 201.148219,49.2094531 201.118219,49.2627344 C201.070719,49.3475 200.965719,49.4371094 200.745719,49.4371094 L199.100719,49.4371094 L199.100719,43.03125 L199.578219,43.03125 C199.693219,43.0409375 199.788219,43.1232812 199.788219,43.2346875 L199.788219,48.7880469 L201.338219,48.7880469 Z" id="Fill-35" fill="#1E252B"></path>
                <path d="M208.29054,49.4371094 L207.53554,49.4371094 L206.93304,45.026875 L206.33054,49.4371094 L205.57554,49.4371094 L206.58804,43.03125 L206.96304,43.03125 C207.24804,43.03125 207.29554,43.205625 207.32554,43.38 L208.29054,49.4371094 Z" id="Fill-37" fill="#1E252B"></path>
                <path d="M215.074065,49.4371094 L215.074065,47.0951563 C215.074065,46.7827344 214.901565,46.6834375 214.719065,46.6834375 L214.356565,46.6834375 L214.356565,49.4371094 L213.669065,49.4371094 L213.669065,43.03125 L214.921565,43.03125 C215.381565,43.03125 215.764065,43.3872656 215.764065,43.8353125 L215.764065,45.8139844 C215.764065,45.8139844 215.791565,46.3153125 215.514065,46.3807031 C215.781565,46.5090625 215.764065,46.98375 215.764065,46.98375 L215.764065,49.4371094 L215.074065,49.4371094 Z M214.719065,46.0610156 C214.901565,46.0610156 215.074065,45.9859375 215.074065,45.6953125 L215.074065,43.9733594 C215.074065,43.7360156 214.901565,43.6439844 214.719065,43.6439844 L214.356565,43.6439844 L214.356565,46.0610156 L214.719065,46.0610156 Z" id="Fill-39" fill="#1E252B"></path>
                <path d="M69.6043165,19.9456641 C69.6043165,-2.39855469 104.234317,-2.39855469 104.234317,19.9456641 C104.234317,42.3358984 69.6043165,42.3358984 69.6043165,19.9456641 M95.4068165,19.9456641 C95.4068165,8.31339844 78.4793165,8.31339844 78.4793165,19.9456641 C78.4793165,31.6723828 95.4068165,31.6723828 95.4068165,19.9456641" id="Fill-41" fill="#1E252B"></path>
                <path d="M135.387032,35.8950781 L135.387032,37.0963281 L125.742032,37.0963281 L119.954532,27.585625 L115.467032,27.585625 L115.467032,37.0963281 L106.834532,37.0963281 L106.834532,4.78125 L121.642032,4.78125 C134.904532,4.82726562 137.317032,20.106875 128.779532,25.6457031 L135.387032,35.8950781 Z M121.642032,12.1655469 C119.617032,12.1195312 117.494532,12.1655469 115.467032,12.1655469 L115.467032,20.2449219 L121.642032,20.2449219 C126.319532,20.2449219 126.562032,12.2139844 121.642032,12.1655469 L121.642032,12.1655469 Z" id="Fill-43" fill="#1E252B"></path>
                <polygon id="Fill-45" fill="#1E252B" points="158.667428 12.1679687 146.174928 12.1679687 146.174928 16.7380469 157.654928 16.7380469 157.654928 24.07875 146.174928 24.07875 146.174928 29.755625 159.102428 29.755625 159.102428 37.0963281 137.589928 37.0963281 137.589928 4.78125 158.667428 4.78125"></polygon>
                <path d="M183.981799,31.8552344 L170.669299,31.8552344 L168.691799,35.9167188 L160.251799,35.9167188 L160.251799,34.7178906 L175.444299,3.1875 L179.159299,3.1875 L194.399299,34.7178906 L194.399299,35.9167188 L185.959299,35.9167188 L183.981799,31.8552344 Z M177.276799,16.2971094 L173.466799,24.7930469 L181.184299,24.7930469 L177.276799,16.2971094 Z" id="Fill-47" fill="#1E252B"></path>
                <polygon id="Fill-49" fill="#1E252B" points="204.545809 29.6635938 216.795809 29.6635938 216.795809 37.0963281 195.863309 37.0963281 195.863309 4.78125 204.545809 4.78125"></polygon>
                <mask id="mask-2" fill="white">
                    <use xlink:href="#path-1"></use>
                </mask>
                <g id="Clip-52"></g>
                <polygon id="Fill-51" fill="#1E252B" mask="url(#mask-2)" points="218.52518 37.6219531 226.19268 37.6219531 226.19268 30.28125 218.52518 30.28125"></polygon>
                <path d="M22.3371382,41.0653125 L22.3396382,41.0677344 L53.4071382,2.07554687 C53.8471382,1.74859375 53.9996382,1.1625 53.7446382,0.666015625 C53.5046382,0.20828125 52.9871382,-0.02421875 52.4821382,0.055703125 L52.4846382,0.050859375 L0.989638196,0 L0.992138196,0.007265625 C0.879638196,0.026640625 0.767138196,0.055703125 0.659638196,0.1065625 C0.0721381961,0.385078125 -0.167861804,1.07046875 0.124638196,1.63234375 C0.237138196,1.8503125 0.412138196,2.015 0.617138196,2.12398437 L0.617138196,2.12640625 L23.5521382,15.0253125 L20.3421382,40.0408594 C20.2946382,40.2782031 20.3196382,40.5300781 20.4396382,40.7625781 C20.7321382,41.326875 21.4471382,41.5569531 22.0371382,41.2760156 C22.1521382,41.2227344 22.2496382,41.1476563 22.3371382,41.0653125" id="Fill-53" fill="#1E252B" mask="url(#mask-2)"></path>
            </g>
        </g>
    </g>
</svg>