<?xml version="1.0" encoding="UTF-8" standalone="no"?>
<svg width="156px" height="131px" viewBox="0 0 156 131" version="1.1" xmlns="http://www.w3.org/2000/svg" xmlns:xlink="http://www.w3.org/1999/xlink">
    <!-- Generator: Sketch 42 (36781) - http://www.bohemiancoding.com/sketch -->
    <title>Page 1</title>
    <desc>Created with Sketch.</desc>
    <defs></defs>
    <g id="home" stroke="none" stroke-width="1" fill="none" fill-rule="evenodd">
        <g id="tablet" transform="translate(-570.000000, -2840.000000)" fill="#1E252B">
            <g id="Page-1" transform="translate(570.000000, 2840.000000)">
                <g id="Group-11" transform="translate(0.000000, 0.365865)">
                    <path d="M77.4613815,26.5218976 C77.3482413,26.6453366 77.2411621,26.77687 77.140144,26.9124505 C76.8714359,27.2726495 76.643135,27.665226 76.4633227,28.0841091 C76.035006,29.0776919 75.9279268,30.2007843 76.218859,31.2510276 C76.5198929,32.3376954 77.2047956,33.2361694 78.0088996,33.9788269 C78.2917503,34.2398701 78.5766213,34.4887716 78.837248,34.7740978 C79.5140692,35.5127082 80.1727072,36.5386684 80.1464425,37.5929588 C80.1343203,38.1332573 79.992895,38.6654615 79.8130828,39.171359 C79.7625737,39.3150339 79.4857842,39.857356 79.8656122,39.7116576 C81.8536483,38.9406697 82.4153089,36.3140499 81.2313769,34.5939983 C80.372723,33.3454433 78.9079607,32.9083478 77.9200037,31.811562 C76.6330332,30.3788603 76.6815218,28.2419492 77.637153,26.6230771 C77.7199879,26.4915438 77.5401756,26.4369068 77.4613815,26.5218976" id="Fill-1"></path>
                    <path d="M70.7807856,21.8813865 C70.7100729,21.8995989 70.6595638,21.9704245 70.6130955,22.0210143 C70.4130797,22.2415856 70.225186,22.4742984 70.0453738,22.7130821 C69.6311996,23.2675457 69.2735956,23.858434 68.9705413,24.4837233 C68.3260458,25.8152456 67.9603603,27.2985371 67.9906658,28.7919466 C68.0573377,31.8131665 69.7625232,34.3406305 71.9020864,36.2387579 C72.7769031,37.0158165 73.5628239,37.8333469 74.2315637,38.8208588 C74.8316112,39.7112385 75.4134754,40.6724437 75.6256134,41.7530408 C75.8458329,42.8680389 75.6377356,44.0295796 75.3205388,45.1000588 C75.1791134,45.5735788 75.0134438,46.036981 74.8356519,46.4963359 C74.7386745,46.7533318 74.8114076,46.9759267 75.1185026,46.8727236 C75.9266473,46.599539 76.678222,46.0248394 77.2641269,45.3955029 C78.6864617,43.8656688 79.2663056,41.6903095 78.8117241,39.6161297 C78.3369391,37.4508884 76.8560138,35.9251015 75.1467876,34.7210654 C74.4558239,34.2354038 73.714351,33.834733 73.0355094,33.3268119 C71.2717335,32.0094547 69.8999078,30.1781057 69.6655458,27.8793074 C69.4695707,25.9427318 70.013048,23.824033 70.9808014,22.1687363 C71.0676769,22.0250614 70.9383738,21.8409147 70.7807856,21.8813865" id="Fill-3"></path>
                    <path d="M58.0445487,51.078107 C61.7761571,54.0709966 69.0777451,56.0116195 77.8582379,56.0055487 C82.0100817,56.0015016 85.9901946,55.5421466 89.4389524,54.686168 C90.82088,54.3441813 92.1179523,53.9374397 93.3059251,53.4699904 C93.5584703,53.3708345 93.8009138,53.2676314 94.0413368,53.1644283 C93.9665834,57.9036762 91.5098234,62.0237055 91.5098234,62.0237055 C95.7970313,57.3917079 96.3324272,53.3748817 96.3768752,51.956345 C96.8496399,51.6629245 97.2860381,51.359386 97.6779883,51.0437059 C97.4133209,53.9617228 96.3627327,58.5674137 95.3687146,62.1835691 L97.6497032,62.1835691 C98.9124294,56.7785601 100.340825,48.8339456 100.340825,46.3327883 L100.340825,46.3327883 C100.336785,43.515951 97.8355765,40.9864634 93.2938029,39.2077277 C93.1746016,39.1611852 93.0513595,39.1166662 92.9301378,39.0721472 C96.7769069,38.4003153 99.3447868,36.8846464 100.318601,34.7254758 L100.359009,34.763924 L100.42568,34.4644327 C100.48023,34.324805 100.526699,34.1811301 100.569126,34.0374552 C100.593371,33.954488 100.617615,33.8715208 100.637818,33.78653 L100.637818,33.78653 C100.696409,33.5214397 100.726714,33.2523022 100.742877,32.9831647 C100.797427,32.6755791 100.866119,32.2344364 100.932791,31.6860435 C101.098461,30.3201202 101.241907,28.2742707 101.078257,25.8661985 C101.023708,25.0668805 100.934812,24.225067 100.801468,23.3569469 C100.449925,21.056125 99.7892665,18.5610385 98.6174566,16.0841643 C96.6698277,11.9621113 92.685674,7.09335367 86.9599683,4.55779534 C86.7801561,4.47685173 86.6326697,4.41209685 86.5215498,4.36353069 C86.6326697,4.41209685 86.7801561,4.47685173 86.9599683,4.55779534 C87.549914,2.53622888 86.5134684,1.60942464 84.7153463,1.20268304 C84.9355657,0.178746471 83.9819549,0.14636903 82.6101292,0.00876490676 C81.6645998,-0.0863438255 81.682783,0.623936282 81.682783,0.623936282 L81.6726812,0.915333249 C81.4989301,0.913309658 81.3231586,0.911286068 81.1473871,0.911286068 C78.5209166,0.911286068 78.6481994,2.71025762 78.6481994,2.71025762 L78.6481994,2.87619201 C78.3815117,2.88226278 78.1128035,2.89642791 77.8440954,2.91464022 L77.506695,2.93689971 C76.7894665,2.28530371 75.5651272,1.8603498 74.1448127,1.8603498 C71.8820074,1.8603498 70.11015,2.93487612 70.11015,4.30484658 L70.11015,5.03940977 C68.6393265,5.75373705 67.1381976,6.6603054 65.7199036,7.70447786 C58.0203043,13.3806479 56.3191596,21.5357158 56.2504673,21.8797262 L56.0767162,22.7559406 L56.1514696,22.7842709 C56.1292456,22.9077099 56.1151031,23.0311489 56.1009605,23.1545879 C56.0181257,23.9275993 56.1211642,24.7167994 56.3918927,25.5120703 C56.9434515,27.1370131 58.2001166,28.7842154 60.0325848,30.3545213 C60.7700169,30.9858814 61.5983653,31.6050999 62.5135892,32.2061062 C64.7279059,33.6610674 67.4392316,35.0047312 70.5283649,36.146036 C69.1828039,34.8327261 68.1887858,33.4081187 67.5685347,31.9167328 C67.2553786,31.7669871 66.9482836,31.6131943 66.6492701,31.4594014 C65.5178674,30.8725603 64.4713199,30.2533418 63.5177091,29.6078165 C63.3378969,29.4864011 63.1580847,29.3649857 62.9863539,29.2415467 C60.9053812,27.7542081 59.50325,26.2304448 58.9415894,24.9070169 C58.6829831,24.3019634 58.6021686,23.7373818 58.7153088,23.2375551 C58.7738993,22.9724648 58.8951211,22.7174924 59.0648315,22.472638 C59.9073224,21.2524132 62.0610282,20.3215618 65.0855099,19.910773 C66.2613606,19.752933 67.5301479,19.674013 68.8656071,19.674013 C71.4011613,19.674013 74.18522,19.9573156 77.0642357,20.5138029 C78.0319891,20.6999732 79.0098442,20.9164973 79.9917401,21.1633753 C82.2525251,21.7340277 84.4203734,22.4341898 86.4326539,23.2335079 C89.2712624,24.3626711 91.8007555,25.6921698 93.8352599,27.1451075 C95.5141807,28.3471199 96.7526625,29.5713919 97.4618095,30.696508 C98.033572,31.6010527 98.2638932,32.4408426 98.1042846,33.1490991 L98.1042846,33.1490991 C98.0941828,33.1976653 98.0759996,33.2442079 98.061857,33.2907504 C97.5971738,34.8145137 95.2555743,35.9983139 91.7361039,36.4758812 C89.2409569,36.8138207 86.3417376,36.7854904 83.2465432,36.4171971 C83.2728079,36.9352361 83.2142174,37.4633931 83.0647106,37.9713142 C82.8889391,38.5682733 82.5959866,39.0984539 82.2161586,39.5395965 C82.7798396,39.5861391 83.3394798,39.6387524 83.8869979,39.7035073 L94.0332554,50.2504586 C93.5322056,50.5034074 92.9867079,50.7482618 92.3987826,50.9789511 C92.3725179,50.989069 92.3442328,50.999187 92.3179681,51.0093049 L81.7353124,40.0090694 C81.4221563,40.2660653 81.0726337,40.4785423 80.688765,40.6262644 C80.5331971,40.6869721 80.3937921,40.7112551 80.2665093,40.7112551 C80.1735727,40.7112551 80.0887175,40.69709 80.0119437,40.6768541 C80.007903,40.9459916 79.9917401,41.2131055 79.9614347,41.4781958 L89.9036356,51.8146937 C89.2712624,51.9947933 88.6126244,52.158704 87.9337828,52.3084497 L79.4502831,43.4896443 C79.1512696,44.2221839 78.7370954,44.9061573 78.215842,45.5193051 L85.2285182,52.8082765 C84.5153304,52.9135031 83.7880001,53.0065883 83.044507,53.0814611 L76.9308918,46.7253648 C76.4904529,47.0471156 75.9752606,47.3445833 75.3954168,47.5408716 C75.2317675,47.5975321 75.0681181,47.6238387 74.9085096,47.6238387 C74.7893082,47.6238387 74.6741476,47.60765 74.5630277,47.5772962 L80.0624528,53.2939381 C79.3351225,53.3242919 78.5997108,53.3425042 77.8562176,53.3425042 C77.791566,53.3425042 77.7269144,53.3404806 77.6602425,53.3404806 L65.7077814,40.9156377 C66.0896298,40.8043403 66.4755189,40.6991136 66.8715099,40.5999577 C67.1341569,40.5352028 67.4048854,40.4765187 67.6756139,40.415811 L73.6558852,46.6343032 C73.5750707,46.3206468 73.5952743,45.9725893 73.7286182,45.6265554 C73.9266137,45.1064927 74.068039,44.7037983 74.1811793,44.3193162 C74.2175458,44.1999244 74.2478512,44.0825562 74.2781566,43.9692351 L70.3748174,39.9119371 C71.0859848,39.8026632 71.8133151,39.7095781 72.5547879,39.6326816 L74.4721114,41.6279414 C74.4680707,41.6016348 74.4660503,41.5753281 74.4599892,41.5490214 C74.3003806,40.7355382 73.8579214,39.9605032 73.2457517,39.0498877 C72.7871295,38.3740086 72.2436522,37.7466957 71.5183423,37.0627223 C62.7984603,38.090706 55.3130194,41.5409271 55.3130194,46.4481329 C55.3130194,47.7533485 56.4929107,55.7465292 58.0526301,62.1835691 L60.402311,62.1835691 C59.3153563,58.0716342 58.2849718,53.1927586 58.0445487,51.078107 L58.0445487,51.078107 Z M85.1396223,1.84213749 C85.1396223,1.84213749 85.9962557,2.10925138 86.1498032,2.45933246 C86.3033507,2.80941353 86.4467964,3.44077363 86.2811267,4.25628042 C86.2811267,4.25628042 85.7214865,3.86775113 85.1295205,3.68562803 C85.1295205,3.68562803 85.4042897,2.5119458 85.1396223,1.84213749 L85.1396223,1.84213749 Z M74.0538965,2.77703609 C75.5853308,2.77703609 76.825833,3.41041978 76.825833,4.19152554 C76.825833,4.9726313 75.5853308,5.60803857 74.0538965,5.60803857 C72.5244825,5.60803857 71.2839803,4.9726313 71.2839803,4.19152554 C71.2839803,3.41041978 72.5244825,2.77703609 74.0538965,2.77703609 L74.0538965,2.77703609 Z M66.8028176,9.29097246 C67.9039148,8.47951285 69.0292564,7.77125633 70.1667201,7.17227368 C70.3970414,7.62758144 71.2274102,8.56045645 74.1367313,8.56045645 C77.7309551,8.56045645 78.0198669,7.24512292 78.0400705,6.96991467 L78.1592719,4.84109794 L78.1956384,4.83907435 C79.9735569,4.73991844 81.749455,4.91799436 83.4708033,5.37330213 C90.212751,7.15406137 94.8494816,12.516575 96.9405562,16.9401428 C97.8820448,18.9313555 98.4618887,20.9529219 98.8073706,22.8631909 C98.9265719,23.5147869 99.0174882,24.1522178 99.0841602,24.7714363 C98.340667,24.1036516 97.5951534,23.4763387 96.8496399,22.8854504 C96.8274159,21.5660697 96.3728345,17.4642527 91.9805677,12.718934 C91.9805677,12.718934 94.2858006,16.583991 94.4979386,21.135045 C86.1720272,15.3394831 78.1027017,13.8804747 72.3244667,13.809649 C67.37458,13.7509649 63.4348743,14.6433681 61.1518653,15.3293652 C62.4630802,13.3057751 64.287467,11.1425574 66.8028176,9.29097246 L66.8028176,9.29097246 Z M95.2919409,24.8665451 C95.0616196,24.7006107 94.8252373,24.5387235 94.5848142,24.3768363 C92.7786106,23.168753 90.6673324,22.0537549 88.3499773,21.0702901 C85.9538281,20.0544479 83.3354391,19.1762098 80.593808,18.4861656 C71.4738943,16.1914145 63.4793222,16.4645992 59.2527251,18.8625534 C59.4224355,18.4740241 59.6163903,18.0612117 59.832569,17.6322106 C60.8467907,17.2315398 65.6512113,15.4872052 72.304263,15.5661252 C77.4743692,15.6288565 84.5597784,16.8531285 91.9846084,21.5478574 C93.4412893,22.4706144 94.9121128,23.5269285 96.3849566,24.7329881 C97.3426082,25.5181411 98.2982394,26.3640017 99.2518502,27.2827116 C99.2639724,27.7562317 99.2659927,28.2115394 99.2558909,28.6425641 C98.3386466,27.3677024 97.0112688,26.0948642 95.2919409,24.8665451 L95.2919409,24.8665451 Z M87.667095,40.3207023 C88.822742,40.5655567 89.9197985,40.8529064 90.9461424,41.1867988 L97.2698752,47.7594193 C96.9769227,48.1823496 96.5587078,48.6032563 96.029373,49.0140451 L87.667095,40.3207023 Z M63.3015304,41.7250738 L74.3670526,53.2291832 C73.453849,53.1684755 72.5588287,53.0875319 71.6819916,52.9802816 L61.5923042,42.4920144 C62.1135576,42.2249005 62.6832996,41.9679046 63.3015304,41.7250738 L63.3015304,41.7250738 Z M59.6062884,43.7405694 L67.8877519,52.3489215 C66.7220031,52.0959728 65.6148448,51.798505 64.5844602,51.4565183 L58.3880102,45.0154312 C58.6708609,44.5864301 59.0809944,44.1594526 59.6062884,43.7405694 L59.6062884,43.7405694 Z" id="Fill-5"></path>
                    <path d="M6.15402238,77.0988506 C6.15402238,81.1804318 6.54395223,82.9733325 8.9481829,82.9733325 C9.7967349,82.9733325 10.0917077,82.9814269 10.8594453,82.9814269 L10.8594453,80.186849 L10.8533842,75.848272 L16.0214699,75.848272 L16.0214699,88.4613088 L7.39250423,88.4613088 C2.15774652,88.4613088 0,84.4161522 0,77.2081245 C0,69.9656957 2.05066734,65.6271186 8.48754038,65.6271186 L16.0214699,65.6271186 L16.0214699,71.0017738 L9.05526208,71.0017738 C6.54395223,71.0017738 6.15402238,73.7518327 6.15402238,77.0988506" id="Fill-7"></path>
                    <path d="M30.9942224,78.7541473 L33.9298083,88.4613088 L27.385856,88.4613088 L25.1937634,80.2252973 L24.3795575,80.2252973 L24.3795575,88.4613088 L18.4376731,88.4613088 L18.4376731,65.6271186 L26.6443832,65.6271186 C31.3114192,65.6271186 33.4691657,67.7599826 33.4691657,72.871571 C33.4691657,75.7025735 32.6569802,77.3194219 30.9942224,78.7541473 M25.3351887,71.2162744 L24.3795575,71.2162744 L24.3795575,76.3642874 L25.2988222,76.3642874 C26.5029579,76.3642874 26.9959262,75.8118474 26.9959262,73.7174317 C26.9959262,71.8779883 26.4665914,71.2162744 25.3351887,71.2162744" id="Fill-9"></path>
                </g>
                <polygon id="Fill-12" points="36.8753463 88.4613088 42.8879433 88.4613088 42.8879433 65.6271186 36.8753463 65.6271186"></polygon>
                <polygon id="Fill-13" points="46.0941828 88.4613088 46.0941828 65.6271186 52.1431464 65.6271186 52.1431464 83.3497203 57.6243882 83.3497203 57.6243882 88.4613088"></polygon>
                <polygon id="Fill-14" points="58.7700831 88.4613088 58.7700831 65.6271186 64.8190467 65.6271186 64.8190467 83.3497203 70.3002885 83.3497203 70.3002885 88.4613088"></polygon>
                <path d="M47.3089441,105.924472 L47.9918265,106.77438 C48.408021,107.292419 48.3696341,107.755821 47.8766658,108.164586 L47.347331,108.603705 C46.9836659,108.90522 46.5997971,108.913315 46.1957247,108.627989 C46.096727,108.559186 45.979546,108.441818 45.8421614,108.269813 L45.767408,108.176728 L44.2581976,109.427307 L43.7894737,108.842489 L47.3089441,105.924472 Z M47.2786387,106.922102 L46.2704781,107.757845 L46.3775573,107.893425 C46.4422089,107.974369 46.4927179,108.024959 46.5270641,108.047218 C46.6482858,108.122091 46.7654668,108.113997 46.878607,108.018888 L47.4059215,107.581792 C47.5675505,107.448236 47.5796726,107.296466 47.4443084,107.128508 L47.2786387,106.922102 Z" id="Fill-15"></path>
                <path d="M50.0285757,113.767628 L49.0992093,115.127481 L48.5537116,114.605394 L49.1093111,113.791911 L48.5597726,113.263754 L47.7900147,113.874878 L47.2465374,113.354816 L48.5254265,112.334926 L50.9215757,110.529884 L51.6610282,111.238141 L50.0285757,113.767628 Z M49.483078,113.245542 L50.5760938,111.650953 L49.0709242,112.850942 L49.483078,113.245542 Z" id="Fill-17"></path>
                <g id="Group-22" transform="translate(51.855956, 113.578353)">
                    <path d="M2.8992792,0.177803786 L3.780157,0.813211062 C4.31757326,1.19971676 4.4004081,1.65704811 4.03068187,2.18520511 L3.6367113,2.74978674 C3.40436968,3.08165551 3.09323395,3.1848586 2.7033041,3.06141961 L2.15780638,5.30153379 L1.49512768,4.82396654 L2.10729733,2.77609341 L2.02244213,2.73157443 L0.872856208,4.37675314 L0.268767997,3.93965769 L2.8992792,0.177803786 Z M3.13162082,1.14710342 L2.37600547,2.22567692 L2.51541044,2.32685642 C2.60026564,2.38756412 2.6608765,2.42398874 2.69926337,2.43613028 C2.83664798,2.47660208 2.94776789,2.43410669 3.03262309,2.31269129 L3.42659366,1.75013325 C3.54781538,1.57610451 3.51953031,1.42838244 3.34375882,1.30291985 L3.13162082,1.14710342 Z" id="Fill-18"></path>
                    <path d="M7.11335007,2.96165662 L8.07100162,3.46755413 C8.65488621,3.77513982 8.80035227,4.21830604 8.50537943,4.79098202 L8.19222333,5.40615339 C8.0083704,5.76635242 7.71339756,5.91205091 7.30932518,5.84527244 L7.07294284,8.14002355 L6.35167363,7.75958862 L6.68099263,5.64493702 L6.5920967,5.61255958 L5.67485239,7.40343677 L5.01621441,7.05537928 L7.11335007,2.96165662 Z M7.47297449,3.89048445 L6.87292701,5.06416668 L7.02445415,5.14308669 C7.11537044,5.19165285 7.18204238,5.21998311 7.22042925,5.22605388 C7.36185459,5.24628978 7.46691341,5.18962926 7.53358535,5.05809591 L7.84876181,4.44494812 C7.94371882,4.25675425 7.89725049,4.11307935 7.70531611,4.01189985 L7.47297449,3.89048445 Z" id="Fill-20"></path>
                </g>
                <polygon id="Fill-23" points="63.8171716 118.589355 64.5121761 118.852421 62.9221513 123.17481 62.2271468 122.911743"></polygon>
                <polygon id="Fill-24" points="65.6842105 124.216889 66.7893485 119.740708 67.5106177 119.924854 66.5610476 123.763605 67.7065928 124.055002 67.5490046 124.692433"></polygon>
                <polygon id="Fill-25" points="71.4459834 125.467398 73.3511847 125.726417 73.4380602 125.074821 72.2662503 124.914958 72.783463 120.99324 72.0500716 120.892061"></polygon>
                <path d="M78.413164,123.921375 L78.5990373,125.56453 L77.849483,125.538223 L77.7383631,124.554759 L76.9827478,124.528452 L76.8029356,125.501799 L76.0554017,125.475492 L76.3523949,123.854596 L76.9766867,120.892061 L77.9929287,120.926462 L78.413164,123.921375 Z M77.6636097,123.895068 L77.447431,121.964563 L77.0979084,123.874832 L77.6636097,123.895068 Z" id="Fill-26"></path>
                <path d="M86.8841332,121.910722 L86.8174613,121.560641 L87.5468119,121.418989 L87.6114635,121.76907 L88.0761467,121.678009 L88.2135313,122.406501 L87.7508685,122.497563 L87.9791694,123.699575 C88.1145336,124.41795 87.8316829,124.844927 87.128597,124.982531 C86.4376332,125.118112 86.023459,124.826715 85.8860744,124.10834 L85.7244455,123.254385 C85.6618143,122.91847 85.7486898,122.655403 85.9891129,122.463162 C85.6961604,122.376147 85.5183686,122.16367 85.453717,121.827754 L85.3082509,121.056767 C85.1708663,120.336369 85.4496763,119.909391 86.1446808,119.773811 C86.8457463,119.636206 87.2639613,119.927603 87.3993255,120.648001 L87.4417531,120.866549 L86.7124024,121.010224 L86.6719952,120.789653 C86.631588,120.581223 86.5063255,120.484091 86.2941875,120.498256 C86.0820495,120.560987 85.995174,120.700615 86.0355812,120.915115 L86.1830676,121.686103 C86.2133731,121.84799 86.3002486,121.945123 86.441674,121.973453 C86.4780405,121.979524 86.536631,121.9775 86.6134047,121.963335 L86.8841332,121.910722 Z M86.9932328,124.256063 C87.2094115,124.211544 87.2942667,124.073939 87.2498187,123.841227 L87.0215178,122.639214 L86.7528097,122.691827 C86.6760359,122.71004 86.6214862,122.728252 86.5891604,122.748488 C86.4679387,122.827408 86.4214703,122.948823 86.4517758,123.112734 L86.6154251,123.966689 C86.659873,124.205473 86.7851355,124.300582 86.9932328,124.256063 L86.9932328,124.256063 Z" id="Fill-27"></path>
                <polygon id="Fill-29" points="94.4930748 118.415396 95.1537331 118.075433 96.0346109 119.83798 96.6124344 119.540512 95.7315566 117.777965 96.392215 117.438002 98.446923 121.553984 97.7862647 121.893947 96.9053869 120.129377 96.3275634 120.426844 97.2084412 122.191415 96.5477829 122.531378"></polygon>
                <path d="M102.99371,116.974809 C103.371518,117.492848 103.276561,117.968392 102.704798,118.399416 C102.135056,118.828417 101.660271,118.781875 101.282464,118.261812 L99.1024931,115.27297 L99.6984998,114.823733 L101.87847,117.814599 C101.999692,117.980533 102.147178,117.998746 102.318909,117.869236 C102.49266,117.737702 102.518925,117.58998 102.397703,117.422022 L100.217733,114.43318 L100.81374,113.983943 L102.99371,116.974809 Z" id="Fill-30"></path>
                <polygon id="Fill-32" points="105.931541 112.733643 104.258681 109.926924 104.767812 109.378531 108.073124 112.545449 107.584197 113.071583 105.731525 111.294871 107.149819 113.539032 106.804337 113.911373 104.503145 112.616275 106.357837 114.392987 105.864869 114.923168 102.559557 111.756249 103.068688 111.207856"></polygon>
                <g id="Group-64" transform="translate(29.961219, 32.237883)">
                    <path d="M81.8723977,75.0036255 C82.3976918,75.3638245 82.4623434,75.8434154 82.0643321,76.4383508 C81.6663208,77.0292391 81.2016376,77.1445838 80.6743231,76.7823611 L78.3751513,75.2039609 C77.8498572,74.8437619 77.7852056,74.3661946 78.1852373,73.7753063 C78.5852689,73.1803709 79.0479318,73.0650262 79.5732259,73.4252253 L81.8723977,75.0036255 Z M79.1570313,74.0444438 C78.9873209,73.9290992 78.8418549,73.9614766 78.7226535,74.1395525 L78.7186128,74.1435997 C78.5994114,74.3216756 78.6236558,74.4693977 78.7933662,74.5847424 L81.092538,76.1631426 C81.2602281,76.2805108 81.4056941,76.2481334 81.5269159,76.0680339 C81.6481376,75.8879343 81.6238932,75.7381887 81.4562032,75.622844 L79.1570313,74.0444438 Z" id="Fill-33"></path>
                    <path d="M91.7014584,30.4097716 L94.5804742,30.4097716 C92.1883657,23.2462628 88.2527007,16.6817367 82.9431896,11.1634066 C79.8399137,7.93578051 76.3931762,5.19988677 72.6878325,2.98405566 L72.087785,5.89397815 C81.0299068,11.4790867 88.0163183,20.115769 91.7014584,30.4097716" id="Fill-35"></path>
                    <g id="Group-39" transform="translate(0.000000, 58.278521)">
                        <path d="M48.3410572,36.9322698 C26.6605536,36.9322698 8.4187059,21.3425321 3.4385138,0.380162791 L0.660516171,0.380162791 C2.69906134,9.56523802 7.16810188,17.9955142 13.7383188,24.8271542 C22.9814745,34.4351597 35.2693157,39.7268477 48.3410572,39.7268477 C61.4127988,39.7268477 73.7006399,34.4351597 82.9437957,24.8271542 C89.5140126,17.9955142 93.9830531,9.56523802 96.0215983,0.380162791 L93.2436007,0.380162791 C88.2634086,21.3425321 70.0215609,36.9322698 48.3410572,36.9322698" id="Fill-37"></path>
                    </g>
                    <path d="M30.2456858,2.8915776 L31.039688,1.96679695 L28.8758804,0.43493928 C23.2976612,2.94823812 18.1679623,6.55832277 13.7373086,11.1619901 C8.42779753,16.6823438 4.49213253,23.2468699 2.10204439,30.4103787 L4.98106011,30.4103787 C9.41171378,18.0361255 18.6104216,8.05375581 30.2456858,2.8915776" id="Fill-40"></path>
                    <path d="M23.765577,21.1813915 L23.3514028,17.7655715 C19.5389799,21.2744767 16.4114597,25.5725819 14.2092652,30.4089622 L17.2074822,30.4089622 C18.9187288,26.9810006 21.1411269,23.8687191 23.765577,21.1813915" id="Fill-42"></path>
                    <path d="M48.3410572,83.5698869 C32.887309,83.5698869 19.7387937,73.1180443 15.0879206,58.6574698 L12.265475,58.6574698 C17.0133255,74.684303 31.3882005,86.3644647 48.3410572,86.3644647 C65.293914,86.3644647 79.668789,74.684303 84.4166395,58.6574698 L81.5941939,58.6574698 C76.9433208,73.1180443 63.7948055,83.5698869 48.3410572,83.5698869" id="Fill-44"></path>
                    <path d="M79.4746322,30.4097716 L82.4728493,30.4097716 C80.0645779,25.1201072 76.5531889,20.475968 72.2477977,16.8031521 L72.1629425,20.4334727 C75.1187319,23.284711 77.6017567,26.6580356 79.4746322,30.4097716" id="Fill-46"></path>
                    <path d="M24.0435788,11.7672459 L24.3163277,10.4337001 C17.4167917,15.3287644 11.9638349,22.2696783 8.76964277,30.410581 L9.73739612,30.410581 C12.7598575,22.8990148 17.7541922,16.4498333 24.0435788,11.7672459" id="Fill-48"></path>
                    <path d="M86.9443143,30.4097716 L87.9120676,30.4097716 C84.709794,22.2486329 79.2366336,15.2935539 72.3128533,10.396466 L72.5896429,11.7300119 C78.9032739,16.4166464 83.9137714,22.879993 86.9443143,30.4097716" id="Fill-50"></path>
                    <path d="M83.1143142,72.8940329 C86.0357575,68.6424702 88.2581556,63.8364438 89.5976556,58.6580769 L88.6703095,58.6580769 C87.3489928,63.6462263 85.1932666,68.2741768 82.370821,72.3759938 L83.1143142,72.8940329 Z" id="Fill-52"></path>
                    <path d="M14.6935459,72.9233749 C11.6832067,68.688001 9.39211627,63.8678095 8.01220909,58.6590887 L7.08284261,58.6590887 C8.4890145,64.0863572 10.8609194,69.1048605 13.9945007,73.5041453 L14.6935459,72.9233749 Z" id="Fill-54"></path>
                    <path d="M31.7080237,74.38724 L41.3431297,71.4631523 C41.7269985,71.3457841 41.9936862,71.0179625 42.0664193,70.6334804 L58.1565815,65.748534 C58.7243032,66.9242399 60.0233959,67.3755004 61.3224886,66.9788768 L67.8846241,63.567104 L61.207328,66.0662377 C60.2133099,66.3697762 59.2435362,66.0257659 58.9526041,64.9917114 C58.6636923,63.9576569 59.3041471,63.1259613 60.2981651,62.8244464 L67.2179047,61.19748 L59.9203574,61.9907273 C58.6232851,62.3853274 57.7666517,63.488184 57.8919141,64.7933995 L41.7855889,69.668228 C41.5249623,69.3950433 41.1370528,69.2716043 40.7592451,69.386949 L31.1241392,72.3110366 C30.5725804,72.4789945 30.2574039,73.0779772 30.4170125,73.6526768 C30.5786414,74.2253528 31.1564649,74.5551979 31.7080237,74.38724" id="Fill-56"></path>
                    <path d="M66.5517913,74.38724 L56.9166854,71.4631523 C56.5328166,71.3457841 56.2661289,71.0179625 56.1933958,70.6334804 L40.1032336,65.748534 C39.5355119,66.9242399 38.2364192,67.3755004 36.9373265,66.9788768 L30.375191,63.567104 L37.0524871,66.0662377 C38.0465052,66.3697762 39.0162789,66.0257659 39.307211,64.9917114 C39.5961227,63.9576569 38.955668,63.1259613 37.96165,62.8244464 L31.0419104,61.19748 L38.3394576,61.9907273 C39.63653,62.3853274 40.4931634,63.488184 40.367901,64.7933995 L56.4742261,69.668228 C56.7348528,69.3950433 57.1227623,69.2716043 57.50057,69.386949 L67.1356759,72.3110366 C67.6872347,72.4789945 68.0024112,73.0779772 67.8428026,73.6526768 C67.6811737,74.2253528 67.1033501,74.5551979 66.5517913,74.38724" id="Fill-58"></path>
                    <path d="M53.9960502,48.4978336 L53.9960502,56.0114235 L48.0137586,56.0114235 L48.0137586,33.0254641 L55.2426135,33.0254641 C60.2288667,33.0254641 62.7563395,35.1724931 62.7563395,40.7980735 C62.7563395,46.4985266 60.3339255,48.4978336 55.6345637,48.4978336 L53.9960502,48.4978336 Z M54.8506633,38.2807274 L53.9960502,38.2807274 L53.9960502,44.1289027 L54.994109,44.1289027 C56.3457311,44.1289027 56.6306022,43.3154195 56.6306022,41.2432633 C56.6306022,39.1690835 56.311385,38.2807274 54.8506633,38.2807274 L54.8506633,38.2807274 Z" id="Fill-60"></path>
                    <path d="M81.2737645,44.1667438 C81.2737645,52.4594158 78.7806379,56.3831569 72.4791291,56.3831569 C66.2463126,56.3831569 63.8259191,52.384543 63.8259191,44.4257633 C63.8259191,36.1715395 66.3170253,32.65454 72.5841879,32.65454 C78.8877171,32.65454 81.2737645,36.2443888 81.2737645,44.1667438 M70.0203487,44.2780413 L70.0203487,45.1663973 C70.0203487,49.9420698 70.4830115,51.0145725 72.6912671,51.0145725 C74.7580973,51.0145725 75.1500476,49.9036216 75.1500476,45.5002897 L75.1500476,44.3144659 C75.1500476,39.9475586 74.7580973,38.5027153 72.4791291,38.5027153 C70.3415862,38.5027153 70.0203487,40.0204078 70.0203487,44.2780413" id="Fill-62"></path>
                </g>
                <polygon id="Fill-65" points="112.930748 88.6151016 118.983752 88.6151016 118.983752 65.6271186 112.930748 65.6271186"></polygon>
                <polygon id="Fill-66" points="133.593663 88.6151016 128.99936 77.916381 128.714489 77.916381 128.714489 88.6151016 123.301939 88.6151016 123.301939 65.6271186 129.320597 65.6271186 133.700742 76.657708 133.985613 76.657708 133.985613 65.6271186 139.434529 65.6271186 139.434529 88.6151016"></polygon>
                <polygon id="Fill-67" points="140.942841 65.6271186 140.587258 71.2162744 144.967402 71.2162744 144.967402 88.6151016 151.054753 88.6151016 151.054753 71.2162744 155.186393 71.2162744 155.541976 65.6271186"></polygon>
            </g>
        </g>
    </g>
</svg>