<?xml version="1.0" encoding="UTF-8" standalone="no"?>
<svg width="135px" height="146px" viewBox="0 0 135 146" version="1.1" xmlns="http://www.w3.org/2000/svg" xmlns:xlink="http://www.w3.org/1999/xlink">
    <!-- Generator: Sketch 42 (36781) - http://www.bohemiancoding.com/sketch -->
    <title>Page 1</title>
    <desc>Created with Sketch.</desc>
    <defs>
        <polygon id="path-1" points="0 145.936841 134.928064 145.936841 134.928064 0 0 0"></polygon>
    </defs>
    <g id="home" stroke="none" stroke-width="1" fill="none" fill-rule="evenodd">
        <g id="tablet" transform="translate(-319.000000, -3028.000000)">
            <g id="Page-1" transform="translate(319.000000, 3028.000000)">
                <mask id="mask-2" fill="white">
                    <use xlink:href="#path-1"></use>
                </mask>
                <g id="Clip-2"></g>
                <path d="M96.1531813,76.8505753 C96.1964671,76.863577 100.828038,78.1940775 103.464138,81.977553 C103.585338,82.155242 103.79311,82.261422 104.011703,82.261422 L104.03551,82.261422 C104.282238,82.2462534 104.487846,82.1162371 104.598224,81.9147118 C104.613374,81.8843746 106.29286,78.8246567 109.30771,77.5613313 C109.783853,78.1875767 110.809724,79.3577237 112.482717,80.4671965 C112.651531,80.5798773 112.859303,80.6080475 113.062746,80.5473733 C113.255367,80.486699 113.41336,80.341514 113.478288,80.1508234 C113.48911,80.1269871 114.344003,77.7888599 116.257231,76.4951973 C118.334946,75.0931878 119.07946,74.1028967 118.906317,72.9760884 C118.863031,72.6965533 118.620631,72.3021704 118.101203,72.1266483 C118.029781,72.102812 117.850146,72.0724748 117.774396,72.0724748 C117.222503,72.0724748 116.588367,72.5015288 116.506124,73.3011292 C116.484481,73.5373256 116.51911,73.7258493 116.588367,73.8732011 C116.263724,74.1657379 115.642574,74.5926249 115.008438,74.5969588 C114.24661,74.5969588 113.588667,73.1472766 113.422017,72.421352 C113.326788,71.8514471 113.439331,66.1198934 113.541053,62.2822444 C114.430574,62.119724 116.077596,61.6256619 117.226831,60.1499765 C117.404303,59.9246148 117.404303,59.6169095 117.235488,59.385047 C117.062346,59.1553515 116.755017,59.066507 116.477988,59.1553515 C116.477988,59.1553515 113.623296,60.024294 111.24691,57.1617676 C110.679867,56.4488447 109.184346,54.2494016 109.078296,52.6653692 C109.060981,52.4096704 108.892167,52.1908095 108.64111,52.104132 C108.396546,52.0217883 108.119517,52.0846295 107.935553,52.2731532 C104.522474,55.831267 98.4992671,61.6603329 96.8760528,62.1587289 C96.6423099,62.2345718 96.4670028,62.4252624 96.4237171,62.6636257 C96.3847599,62.8998221 96.4799885,63.1360184 96.6747742,63.2833703 C96.6942528,63.294205 96.8111242,63.3722148 96.8262742,63.3808825 C97.0600171,63.5217335 97.5383242,63.8142703 97.7157956,64.3625059 C97.8759528,64.9454125 97.7807242,69.7538501 97.6097456,73.9512109 C97.6097456,73.9512109 97.2569671,75.4290633 96.2224385,75.5980846 C95.9194385,75.6500911 95.6878599,75.8971222 95.6770385,76.1983267 C95.6532313,76.4951973 95.8523456,76.7682316 96.1531813,76.8505753 L96.1531813,76.8505753 Z M102.083324,63.0276715 C102.407967,62.6462902 103.760646,61.2854525 105.147953,59.918114 C105.918438,61.0752594 107.087153,61.8813607 107.649867,62.225904 C107.699646,63.5390691 107.563296,67.3377131 107.481053,69.6910089 C107.448588,70.6206257 107.422617,71.4093915 107.407467,71.888285 C106.392417,72.3758463 104.738903,73.4224778 103.310474,75.0303466 C102.784553,74.7161404 101.862567,74.0227199 101.734874,73.8320293 C101.557403,73.060599 101.89936,64.3278349 102.083324,63.0276715 L102.083324,63.0276715 Z M89.5975599,75.9837997 C89.7187599,76.1723234 89.9979528,76.3153414 90.2273671,76.3153414 C91.2445813,76.3153414 93.5603671,73.7648542 95.5125528,70.4971102 C95.7419671,70.0962265 95.9216028,69.1991137 95.1532813,68.3973463 C94.9887956,68.2239912 94.6944528,67.9357883 94.3481671,67.5934119 C93.6815671,66.9411633 92.1189528,65.4178052 91.9631242,65.1079329 C91.9306599,64.960581 91.9912599,64.7373863 92.0496956,64.6182047 C92.2726171,64.5315271 92.4522528,64.4058447 92.5128528,64.3625059 C92.7141313,64.2108201 92.8093599,63.9616222 92.7574171,63.7210919 C92.7011456,63.4762278 92.5128528,63.2877041 92.2639599,63.2291968 C92.2120171,63.2183621 92.0626813,63.2031935 92.0129028,63.2031935 C91.4739956,63.2031935 90.3312528,63.4978972 88.7816242,65.4568101 C88.1864456,66.2087379 87.8120242,66.7461388 87.5393242,67.1405217 C87.1605742,67.6822564 87.0545242,67.8296083 86.8770528,67.9011173 C86.5502456,67.6475854 86.0005171,67.095016 86.3294885,66.3799261 C86.3294885,66.3799261 86.4420313,66.2499097 86.7969742,66.0917232 C87.0631813,65.9725416 87.1562456,65.6951734 87.1151242,65.4091374 C87.0696742,65.1274353 86.7753313,64.9042406 86.4853171,64.8652357 C85.9464099,64.8652357 84.4898456,65.1989443 82.6480385,68.2868324 C81.1958028,70.715971 80.5400242,71.2078662 80.4188242,71.2815421 C80.1569456,71.3595519 79.9621599,71.5979152 79.9535028,71.8774503 C79.9405171,72.2176597 80.2045599,72.5058626 80.5508456,72.5361998 C80.7304813,72.5535353 81.2715528,72.6467137 81.6243313,72.8634076 C82.1372671,73.1776137 82.5722885,75.4572335 82.4684028,77.2991317 C82.4510885,77.5938354 82.4402671,78.1984114 82.4272813,78.9828433 C82.3883242,80.9937627 82.2714528,87.1001968 81.8450885,87.8239544 C81.7974742,87.8672932 81.7541885,87.9149658 81.7238885,87.9713063 C81.4988028,88.3505206 80.8884742,89.1956268 80.4166599,89.3819835 C80.1656028,89.4773289 79.9037242,89.7980358 79.9037242,90.0624024 C79.9080528,90.5716331 80.3474028,90.7384874 80.9057885,90.9508474 C81.9381528,91.3408964 83.8643671,92.0733218 83.9422813,94.0300677 C83.9531028,94.2835996 84.1154242,94.5089612 84.3578242,94.6021396 C84.4400671,94.6324767 84.5201456,94.6454784 84.6045528,94.6454784 C84.7712028,94.6454784 84.9400171,94.5826371 85.0633813,94.4656224 C87.3596885,92.2943496 91.1212171,88.7557382 91.4393671,88.5087071 L91.4328742,88.5022063 C91.9523028,88.1316597 92.6080813,86.9745143 92.6643528,86.5151233 C92.7227885,86.0817355 92.8136885,85.3644786 92.0561885,84.8812512 C91.9977528,84.855248 91.6839313,84.7317325 91.3138385,84.7317325 C90.7381385,84.7317325 90.2858028,85.0372709 90.1040028,85.5530023 C89.9113813,86.0925701 90.0563885,86.4609498 90.2165456,86.6776437 C90.2901313,86.7751559 90.3723742,86.8553327 90.4611099,86.9181739 C90.4178242,86.9658466 90.3680456,87.0178531 90.3009528,87.0785274 L88.9893956,88.335352 C88.9893956,88.335352 88.7513242,88.192334 88.5240742,87.2757188 C88.0912171,85.4988289 88.1431599,83.7414413 88.2080885,81.7066856 C88.2318956,81.1064435 88.2492099,80.486699 88.2557028,79.8734552 C88.5392242,75.0823531 88.5695242,72.7225565 88.5240742,71.5372409 C89.1517171,71.8969528 89.9395171,72.635879 89.9113813,74.0812273 C89.9113813,74.0812273 89.9243671,74.5406184 89.6192028,75.1278588 C89.4525528,75.4507327 89.4460599,75.7389356 89.5975599,75.9837997 L89.5975599,75.9837997 Z M79.7890171,107.735957 C81.9100171,106.240769 84.9443456,103.295899 88.1539813,100.175507 C91.4436956,96.9836056 94.8459528,93.6811905 97.0816599,92.170834 C97.1465885,92.1231614 103.847217,87.2518825 113.112524,86.4327796 C113.112524,86.4327796 113.917638,86.309264 115.040903,86.309264 C117.538488,86.309264 120.774096,86.879169 121.983931,89.5618395 C122.04886,89.756864 123.57901,94.3789449 119.404103,97.1742962 C119.228796,97.2913109 119.122746,97.4798346 119.116253,97.6856938 C119.10976,97.8893861 119.204988,98.0844106 119.369474,98.210093 C119.423581,98.2490979 124.66981,102.32511 122.808524,109.209475 C122.734938,109.480343 122.849646,109.766379 123.092046,109.913731 C123.330117,110.063249 123.646103,110.048081 123.869024,109.870392 C124.23046,109.584356 132.688488,102.717326 131.530596,92.3593577 C131.534924,92.2856818 131.82061,84.9115884 122.113788,81.9277134 C122.01856,81.9038771 119.683296,81.3166366 116.224767,81.3166366 C111.749024,81.3166366 107.446424,82.3199294 103.816917,84.2029993 C103.619967,84.2918438 98.8953313,86.4371134 93.6880599,91.0851976 C92.6621885,92.0018128 91.4999671,93.0116064 90.3247599,94.0365685 C88.0327813,96.0388201 85.6585599,98.10608 84.0223599,99.6966132 C79.1180885,104.693575 75.7807599,106.279774 69.6558313,108.152009 C69.6038885,108.171512 64.4355742,110.063249 58.8019385,110.063249 C54.7200956,110.063249 51.4260528,109.088127 49.0150385,107.179054 C48.9479456,107.127047 42.5221813,101.729202 46.2663956,96.7799133 C46.4049099,96.6022243 46.4352099,96.3660279 46.3486385,96.1601687 C46.2620671,95.9521426 46.0716099,95.8047907 45.8443599,95.7679528 C44.6540028,95.5772621 42.2278385,94.8296682 42.3144099,93.6313509 C42.3079171,93.5880121 41.8599099,89.3906513 43.3770742,85.1174476 C43.3770742,85.1174476 43.3857313,85.0871105 43.3900599,85.0719419 C46.4395385,84.8682496 54.8997313,84.0123087 59.6178742,80.5625418 C59.7693742,80.4411932 63.3642528,77.5699991 63.1759599,74.5579539 C63.0915528,73.2296203 62.3102456,72.1049789 60.8298742,71.2056992 C60.7584528,71.1601935 58.9274671,70.1742363 55.8823171,70.1742363 C53.1553171,70.1742363 50.3482385,70.9500004 47.5346671,72.4776924 C42.7992099,75.0606837 40.2063956,77.9795505 38.9013313,79.882123 C38.1892813,79.0890233 36.4751671,77.1214427 34.8454599,74.7508114 C36.3756099,74.0638918 44.1562171,70.6596306 49.8114956,69.723513 L50.7572885,69.6108321 C57.8604742,68.7852284 66.7037456,67.7515985 70.6362528,66.3495889 L70.7596171,66.3040832 C73.4433313,65.352797 80.5681599,62.8218123 83.8643671,55.1530151 C84.0353456,54.8258073 88.0847242,47.0421625 87.0804956,37.7069893 C86.5480813,32.7685353 84.7279171,29.2364247 84.6543313,29.0869059 C84.5093242,28.8117047 84.1716956,28.6686867 83.8686956,28.766199 C83.5613671,28.8572104 83.3644171,29.1497472 83.4055385,29.4596194 C83.4120313,29.5007913 83.9076528,33.4359525 82.5614671,37.8131693 C81.2347599,41.978026 77.5316671,45.1200876 71.5604028,47.1505094 C71.2249385,47.2653572 71.0431385,47.6164013 71.1470242,47.9436091 C71.1578456,47.9782801 72.2637956,51.6577425 69.7813599,55.5929038 C66.9937599,60.0091254 60.9813742,63.04284 51.9021956,64.6160377 C51.8026385,64.6312063 41.8923742,66.3950947 33.0555956,71.8817842 C32.1011456,70.1503999 31.3717813,68.3691761 31.2072956,66.7829767 C31.0146742,64.9779166 31.6704528,62.3819236 34.0922885,60.5183561 C34.2870742,60.3666704 34.3758099,60.1261401 34.3325242,59.8921107 C34.2827456,59.6580813 34.1031099,59.4673907 33.8672028,59.4002156 C33.4862885,59.2897017 33.2157528,59.0578392 33.0166385,58.6764579 C32.0535313,56.791221 33.4213599,52.3121581 34.0425099,50.7042894 C34.1766956,50.2795693 37.3560313,40.2011361 36.5054671,35.7307409 C35.8605099,32.3438152 34.5035028,28.2374658 29.6771456,26.5775906 C29.6360242,26.562422 28.6058242,26.241715 27.1730671,26.241715 C24.9373599,26.241715 21.8532528,26.9979767 19.8404671,30.610264 C19.7517313,30.7836192 17.7584242,34.9289735 20.6066242,38.7276175 C20.8079028,38.9919841 21.1823242,39.0699939 21.4701742,38.9053065 C21.7666813,38.7406192 21.8792242,38.3895751 21.7450385,38.0883705 C21.7233956,38.0450317 19.7841956,33.7414909 22.3358885,32.2441361 C23.0327885,31.8389185 23.7210313,31.6330593 24.3811385,31.6330593 C25.6299313,31.6330593 26.5389313,32.3546499 27.0886599,32.7837039 C27.2076956,32.8790492 27.3115813,32.9592259 27.3894956,33.0155663 C27.4154671,33.0329018 29.8091671,35.1716706 28.1448313,45.2349353 C27.3808385,49.865684 26.6233385,54.2147306 25.8550171,56.5008512 C24.5174885,60.4598487 22.0913242,61.4414721 21.9939313,61.4783101 C21.7385456,61.5736554 21.5697313,61.8098517 21.5697313,62.0763852 C21.5675671,62.3407518 21.7342171,62.5791151 21.9831099,62.6766273 C22.0112456,62.6831282 24.2729242,63.5694062 24.7447385,65.5781587 C25.2858099,67.8686132 25.9459171,69.5371562 27.2921028,72.0031328 C27.3505385,72.0941442 27.8851171,72.9110802 28.8460599,74.0530571 C28.7508313,74.1028967 28.6296313,74.1657379 28.5019385,74.2372469 C28.3958885,74.0530571 28.2097599,73.9252077 27.9890028,73.9035383 C25.7186671,73.6673419 24.0911242,72.5340328 24.0911242,72.5340328 C19.9378599,69.2987929 21.3857671,65.6995072 21.4506956,65.5521554 C21.5394313,65.3376284 21.5048028,65.0970982 21.3662885,64.9129084 C21.2234456,64.7308855 21.0026885,64.6312063 20.7559599,64.6658773 C19.9118885,64.7742243 18.8513885,64.3018316 18.8513885,64.3018316 C14.7955171,62.2562412 15.4534599,58.2300685 15.4859242,58.0588803 C15.5465242,57.7230048 15.3214385,57.395797 14.9729885,57.3221211 C14.6375242,57.252779 14.2890742,57.4521374 14.1981742,57.7815121 C12.6680242,63.294205 13.7458385,66.4514351 13.7674813,66.5077755 C13.8150956,66.7136347 14.9448528,71.5849136 19.8794242,74.3824318 C21.6389885,75.3748899 23.3660885,75.8797867 25.0260956,75.8797867 C25.3052885,75.8797867 25.5671671,75.8646181 25.8117313,75.8407817 C21.8402671,78.4367747 15.5919742,83.5355821 13.6159813,90.8750045 C13.5294099,91.1870437 13.7003885,91.5099176 14.0033885,91.6312662 C14.3150456,91.7547817 14.6613313,91.6356001 14.8236528,91.353898 C14.8907456,91.2520519 20.9788813,80.9850949 31.1445313,76.4778618 C32.9235742,78.1464048 35.2739885,79.9276287 38.1308456,81.1281129 C37.8819528,81.587504 37.7650813,81.871373 37.7477671,81.9168787 C37.7196313,81.9862207 37.7066456,82.0598967 37.7023171,82.1292387 C35.5488528,82.4477788 33.5230813,82.7749865 32.6833385,83.0133498 C30.9475813,83.5095789 25.1148313,85.5898403 22.9981599,91.4904152 C21.1152313,96.7755794 23.7513313,98.8406723 23.8400671,98.9035135 C24.0045528,99.0421976 25.4827599,100.25135 26.9739528,100.25135 C27.5951028,100.25135 28.7205313,100.021654 29.3048885,98.4852943 C29.7334171,97.3671538 29.4174313,96.5697202 29.0798028,96.0973275 C28.5668671,95.3865715 27.6405528,94.9228466 26.7099099,94.9228466 C26.4004171,94.9228466 26.1168956,94.9835209 25.8766599,95.0875339 C25.6840385,94.9575176 25.3009599,94.5219628 25.2793171,93.9022183 C25.2793171,93.8588795 25.2014028,89.5380032 30.4627813,87.2670511 C33.2070956,86.0795685 34.7762028,85.6396799 36.4859885,85.4403215 C36.0423099,86.8466649 35.2436885,90.5001241 35.3021242,94.2770987 C35.3454099,97.180797 34.4126028,98.3379424 32.7201313,100.431205 L32.5599742,100.628397 C32.4387742,100.777916 32.3911599,100.977274 32.4344456,101.165798 C32.4798956,101.354322 32.6075885,101.512508 32.7850599,101.599186 C32.8023742,101.607853 34.7004528,102.546138 35.6202742,104.102 C37.5053671,108.975446 39.4575528,111.146719 41.1413671,112.80226 C42.5546456,114.189101 46.7360456,117.409173 55.0858599,117.409173 C56.4796599,117.409173 57.9535385,117.315994 59.4577171,117.133971 C69.2511099,115.948656 75.6335885,110.964696 78.6960528,108.568061 C79.1375671,108.225685 79.5054956,107.941816 79.7890171,107.735957 L79.7890171,107.735957 Z M52.4562528,74.1960751 C53.5860099,73.9078722 54.5599385,73.7626873 55.3520671,73.7626873 C56.5510813,73.7626873 56.9666242,74.1115644 56.9731171,74.3585955 C57.0034171,75.0758523 57.0596885,76.5732071 53.6141456,78.6057959 C50.8287099,80.2461687 47.5260099,80.7922374 45.0695456,81.1064435 C46.1495242,79.5007417 49.4197599,74.9718392 52.4562528,74.1960751 L52.4562528,74.1960751 Z M38.9273028,44.6910337 C38.8840171,44.92723 38.9814099,45.1677602 39.1805242,45.3107782 C39.1956742,45.3237798 39.3125456,45.3996227 39.3255313,45.4104574 C39.5571099,45.5491415 40.0397456,45.8460121 40.2193813,46.3942477 C40.3752099,46.9793212 40.2799813,51.783425 40.1111671,55.9807858 C40.1090028,55.9959544 39.7562242,57.4586382 38.7216956,57.6341603 C38.4165313,57.6839999 38.1957742,57.9331979 38.1762956,58.2300685 C38.1589813,58.5291061 38.3580956,58.7999735 38.6524385,58.8844841 C38.7000528,58.8953188 43.3316242,60.2236524 45.9633956,64.0114618 C46.0845956,64.1891508 46.2902028,64.2931638 46.5109599,64.2931638 L46.5455885,64.2909969 C46.7793313,64.2801622 46.9871028,64.1479789 47.0931528,63.9486205 C47.1147956,63.9182834 48.8029385,60.8477308 51.8091313,59.5930731 C52.2831099,60.2171516 53.3111456,61.3916325 54.9819742,62.5011053 C55.1529528,62.6137861 55.3607242,62.6419563 55.5620028,62.581282 C55.7567885,62.5184408 55.9147813,62.3710889 55.9797099,62.1825652 C55.9905313,62.1587289 56.8410956,59.8206017 58.7586528,58.5269392 C60.8406956,57.1184288 61.5852099,56.1324716 61.4099028,55.0078302 C61.3644528,54.7282951 61.1242171,54.3339122 60.5982956,54.1562232 C60.5290385,54.1323869 60.3515671,54.1042167 60.2758171,54.1042167 C59.7217599,54.1042167 59.0876242,54.5311036 59.0032171,55.337205 C58.9859028,55.5712344 59.0248599,55.7554242 59.0876242,55.904943 C58.7673099,56.1974797 58.1396671,56.6243667 57.5033671,56.6287006 C56.7415385,56.6287006 56.0879242,55.1833523 55.9234385,54.4552608 C55.8282099,53.878855 55.9429171,48.1494683 56.0424742,44.3139863 C56.9276671,44.1514658 58.5790171,43.6552368 59.7325813,42.1838852 C59.9057242,41.9563566 59.9078885,41.6486513 59.7369099,41.4167888 C59.5702599,41.1935941 59.2586028,41.1004157 58.9815742,41.1892602 C58.9815742,41.1892602 58.5400599,41.3344451 57.8777885,41.3344451 C56.8043028,41.3344451 55.2178813,40.9617316 53.7483313,39.1935094 C53.1812885,38.4784195 51.6879313,36.2811434 51.5818813,34.697111 C51.5667313,34.4435791 51.3935885,34.2203844 51.1468599,34.1358738 C50.9001313,34.0513632 50.6209385,34.1163713 50.4391385,34.3027281 C47.0260599,37.8630089 41.0050171,43.6920748 39.3818028,44.1883038 C39.1415671,44.2598128 38.9684242,44.4548373 38.9273028,44.6910337 L38.9273028,44.6910337 Z M44.5825813,45.0572463 C44.9093885,44.680199 46.2620671,43.3193613 47.6515385,41.9520228 C48.4220242,43.1070012 49.5864099,43.9109356 50.1512885,44.253312 C50.1989028,45.5578093 50.0668813,49.3152815 49.9824742,51.6447409 C49.9478456,52.6068618 49.9218742,53.4259648 49.9088885,53.9178599 C48.8960028,54.4032542 47.2511456,55.443385 45.8118956,57.0599215 C45.2859742,56.7478822 44.3639885,56.0522948 44.2362956,55.8616042 C44.0566599,55.088007 44.4029456,46.3552428 44.5825813,45.0572463 L44.5825813,45.0572463 Z M61.4228885,96.3486924 C61.3406456,96.7474092 61.0766028,97.3368166 60.8255456,97.3888231 C60.5809813,97.4386627 60.3364171,97.6553566 60.2714885,97.891553 C60.1351385,98.4007837 60.4597813,98.6759849 61.6674528,99.6944462 C63.2127528,100.992443 65.7925813,103.165883 67.0565242,105.586353 C67.1733956,105.803047 67.4006456,105.937397 67.6473742,105.937397 L67.6517028,105.937397 C67.9027599,105.935231 68.1321742,105.798713 68.2403885,105.579853 C68.2598671,105.543015 69.9674885,102.205929 72.3179028,100.886263 C72.7226242,101.612187 73.5645313,102.873346 75.1401313,104.22985 C75.2873028,104.357699 75.4907456,104.414039 75.6833671,104.383702 C75.8803171,104.353365 76.0469671,104.238517 76.1530171,104.07383 C76.1746599,104.028324 78.7241885,99.7962924 80.6352528,98.2859359 C82.2151813,97.0334451 82.5982599,96.4505386 82.3385456,95.7051115 C82.3255599,95.1633768 81.7823242,94.7213212 81.1308742,94.7213212 C80.5768171,94.7213212 80.1050028,95.0290266 79.8431242,95.5772621 C79.6613242,95.9586434 79.5747528,96.1471671 79.6872956,96.4310361 C79.7067742,96.4808757 79.7327456,96.5242145 79.7673742,96.5697202 C79.3864599,97.0009411 78.5813456,97.7918738 77.5727885,98.0844106 C77.5727885,98.0844106 76.7914813,97.5838477 76.9732813,93.5078354 C77.2221742,88.0948218 77.3152385,84.0946524 77.3260599,83.5139127 C77.4169599,83.1758703 77.7221242,82.3546004 78.2155813,82.0793991 C78.4514885,81.9472158 78.6138099,81.7305219 78.6657528,81.4683223 C78.8085956,80.7510655 78.1138599,79.8626205 76.8780528,78.3565979 C76.3153385,77.6696783 75.4647742,76.6317145 75.4149956,76.3066736 C75.3435742,75.8299471 74.9821385,75.6154201 74.6531671,75.6154201 C74.0190313,75.6154201 73.5299028,76.2633349 71.7032456,79.028349 C71.0647813,79.9991377 70.1839171,81.3296382 69.9198742,81.5354974 C69.6341885,81.7370228 69.5670956,82.118404 69.7597171,82.402273 C69.9523385,82.6904759 70.3440742,82.7771535 70.6427456,82.6059653 C70.8007385,82.5192877 71.1491885,82.3871045 71.4998028,82.4174416 C71.6686171,83.1932058 71.4413671,91.3582319 71.2552385,96.3876973 C71.2617313,96.4722079 71.3742742,98.4809604 69.1991671,99.1873825 C69.1991671,99.1873825 69.0693099,99.2177197 68.8788528,99.2177197 C67.5651313,99.2177197 67.2101885,97.8417134 67.1430956,96.684568 C66.9331599,92.9747684 67.5543099,84.2311695 67.5543099,84.2029993 C67.5586385,84.1878308 67.8161885,82.7511502 68.9827385,82.4174416 C69.2056599,82.3524334 69.3766385,82.1747444 69.4372385,81.9558836 C69.4956742,81.7326889 69.4264171,81.4986595 69.2554385,81.3404729 C67.9850028,80.1421557 66.0999099,78.1745751 65.8834813,77.5439958 C65.7925813,77.2861301 65.5458528,77.1127749 65.2666599,77.110608 C65.0026171,77.1647815 64.7342456,77.2731284 64.6325242,77.5244934 C64.6260313,77.5548305 63.4183599,80.5712096 59.9901313,82.4911175 C59.7304171,82.6384694 59.6027242,82.937507 59.6806385,83.2170421 C59.7607171,83.4965772 60.0225956,83.6872679 60.3191028,83.6872679 L60.3299242,83.6872679 C60.3710456,83.6872679 61.1090671,83.6720993 61.9531385,83.3838964 L61.9531385,83.5334152 C61.9466456,84.4023577 61.4142313,96.3161883 61.4228885,96.3486924 L61.4228885,96.3486924 Z M57.3280599,8.41647483 C57.6981528,10.150026 58.8300742,10.6050832 59.9057242,10.3905563 C60.8883099,10.1933648 61.7215599,9.46744025 61.5311028,7.94408213 C61.4921456,7.7035519 61.3925885,7.59303801 61.1956385,7.63420985 L60.6242671,7.74689068 C60.4316456,7.78589558 60.3926885,7.85957151 60.4381385,8.12393807 C60.5441885,8.95170876 60.2152171,9.3092537 59.6979528,9.41109983 C59.1330742,9.52378066 58.6439456,9.28108349 58.4275171,8.24962053 L57.5336671,4.02842336 C57.3172385,2.9969604 57.6613599,2.58740893 58.2284028,2.47256116 C58.7456671,2.37071503 59.1958385,2.56790648 59.4295813,3.37400778 C59.4988385,3.63404046 59.5680956,3.69038088 59.7607171,3.64920904 L60.3299242,3.53436127 C60.5247099,3.49752331 60.5766528,3.35667227 60.5095599,3.11830898 C60.0637171,1.64912434 59.0053813,1.29591329 58.0249599,1.49310473 C56.9471456,1.7076317 56.0900885,2.55923872 56.4558528,4.29495686 L57.3280599,8.41647483 Z M64.3295242,7.15531634 C64.4961742,8.91920468 65.5718242,9.49344351 66.6626242,9.39593126 C67.7555885,9.30058594 68.7078742,8.54649117 68.5390599,6.78043589 L68.1451599,2.59174281 C67.9806742,0.825687523 66.9050242,0.251448689 65.8142242,0.348960944 C64.7190956,0.444306259 63.7668099,1.19840103 63.9356242,2.96445631 L64.3295242,7.15531634 Z M65.9072885,1.34791982 C66.4851528,1.29591329 66.9374885,1.59061699 67.0370456,2.63508159 L67.4417671,6.92995468 C67.5413242,7.97875315 67.1474242,8.34929972 66.5695599,8.40130626 C65.9916956,8.45114586 65.5371956,8.15860909 65.4398028,7.10981062 L65.0372456,2.81277058 C64.9376885,1.76613905 65.3272599,1.39775942 65.9072885,1.34791982 L65.9072885,1.34791982 Z M73.5602028,9.08822592 C74.5644313,9.09472674 75.5340313,8.54865811 75.6768742,7.02313306 C75.6898599,6.78043589 75.6119456,6.65041955 75.4149956,6.65041955 L74.8328028,6.64608567 C74.6358528,6.64391873 74.5795813,6.70675996 74.5644313,6.9754604 C74.4908456,7.81189885 74.0947813,8.08926704 73.5645313,8.0871001 C72.9845028,8.08059929 72.5603028,7.74689068 72.5732885,6.69592527 L72.5992599,2.38154972 C72.6079171,1.32625043 73.0321171,0.999042643 73.6143099,1.00120958 C74.1445599,1.00554346 74.5406242,1.29157941 74.5990599,2.12368398 C74.6120456,2.39455136 74.6639885,2.45739259 74.8631028,2.45955953 L75.4431313,2.46606034 C75.6400813,2.46606034 75.7223242,2.336044 75.7115028,2.09334684 C75.5903028,0.563487904 74.6271956,0.0087515209 73.6229671,8.37649122e-05 C72.5256742,-0.00858399108 71.5041313,0.654499342 71.4911456,2.4248885 L71.4608456,6.63525098 C71.4478599,8.40780708 72.4607456,9.0817251 73.5602028,9.08822592 L73.5602028,9.08822592 Z M78.7155313,9.2702488 L79.2955599,9.32225533 C79.4925099,9.33959085 79.5639313,9.28325043 79.5834099,9.0925598 L80.3798671,0.656666281 C80.4015099,0.465975649 80.3409099,0.396633602 80.1439599,0.37929809 L79.5660956,0.327291554 C79.3691456,0.309956042 79.2955599,0.368463395 79.2782456,0.559154026 L78.4774599,8.99288061 C78.4601456,9.1814043 78.5207456,9.25291329 78.7155313,9.2702488 L78.7155313,9.2702488 Z M82.8168528,9.71447129 L83.3903885,9.81848436 C83.5808456,9.85315539 83.6609242,9.80331579 83.6955528,9.61045822 L84.7560528,4.05442663 C84.7690385,3.9915854 84.8491171,3.9807507 84.8599385,4.07176214 L86.1996313,10.1651946 C86.2299313,10.2995448 86.3121742,10.3450505 86.4290456,10.364553 L86.9116813,10.4490636 C87.1086313,10.4837346 87.1865456,10.433895 87.2211742,10.2432044 L88.8075956,1.91132396 C88.8443885,1.72063333 88.7924456,1.64479046 88.5954956,1.61011944 L88.0219599,1.50610637 C87.8271742,1.47143534 87.7514242,1.52560882 87.7167956,1.71196557 L86.6541313,7.28316574 C86.6411456,7.34600697 86.5610671,7.34384003 86.5502456,7.26583022 L85.2105528,1.17239776 C85.1845813,1.02287897 85.1261456,0.988207948 84.9833028,0.960037741 L84.5006671,0.87552712 C84.3058813,0.838689157 84.2301313,0.888528754 84.1933385,1.08138632 L82.6047528,9.41543371 C82.5679599,9.60612434 82.6220671,9.67980027 82.8168528,9.71447129 L82.8168528,9.71447129 Z M89.9828028,11.1858229 L90.5390242,11.3505102 C90.7035099,11.3981829 90.7792599,11.4220192 90.8744885,11.2486641 L91.2554028,10.5335742 C91.3852599,10.2995448 91.3852599,10.2995448 91.6233313,10.3710538 L93.1015385,10.8131094 C93.3287885,10.8824514 93.3287885,10.8824514 93.3006528,11.1403172 L93.1967671,11.9442515 C93.1794528,12.141443 93.2552028,12.1609454 93.4196885,12.212952 L93.9780742,12.3776393 C94.1036028,12.4144773 94.2291313,12.4513152 94.2572671,12.2302875 L95.2485099,3.5972025 C95.2679885,3.40217799 95.2441813,3.35233839 95.0407385,3.2916641 L94.3611528,3.09013878 C94.1555456,3.02946448 94.1057671,3.05546775 94.0105385,3.22665593 L89.8334671,10.9127886 C89.7295813,11.1078131 89.8572742,11.146818 89.9828028,11.1858229 L89.9828028,11.1858229 Z M91.9674528,9.15756797 L94.0018813,5.21157205 C94.0343456,5.15523164 94.1100956,5.17690103 94.1036028,5.24407614 L93.5062599,9.6147921 C93.4673028,9.87482478 93.4673028,9.87482478 93.2140813,9.79898191 L92.1038028,9.46744025 C91.8484171,9.39376432 91.8484171,9.39376432 91.9674528,9.15756797 L91.9674528,9.15756797 Z M100.938417,15.1534882 L102.351696,15.8534095 C103.327788,16.3366369 104.548446,16.191452 105.377367,14.6139204 L107.299253,10.9561273 C108.128174,9.37859575 107.53516,8.33413115 106.556903,7.85090375 L105.145788,7.15098246 C104.970481,7.0643049 104.881746,7.0924751 104.790846,7.26366329 L100.82371,14.8067779 C100.734974,14.9801331 100.76311,15.0668106 100.938417,15.1534882 L100.938417,15.1534882 Z M102.286767,14.3928926 L105.305946,8.64400343 C105.431474,8.41647483 105.431474,8.41647483 105.667381,8.53348954 L106.087253,8.74368262 C106.608846,9.00154836 106.827438,9.48477576 106.336146,10.4230603 L104.364481,14.1696979 C103.871024,15.1101494 103.340774,15.2184963 102.819181,14.9606306 L102.39931,14.7526045 C102.163403,14.6334228 102.163403,14.6334228 102.286767,14.3928926 L102.286767,14.3928926 Z M111.922167,12.2584577 C112.06501,12.0460977 112.06501,12.0460977 112.285767,12.1804479 L113.70121,13.064559 C113.86786,13.170739 113.960924,13.1512365 114.066974,12.9865492 L114.33751,12.5769977 C114.445724,12.4144773 114.424081,12.3256328 114.257431,12.2237867 L111.911346,10.756769 C111.74686,10.6505889 111.653796,10.6722583 111.547746,10.8326118 L106.82311,17.9618411 C106.714896,18.1243615 106.738703,18.215373 106.903188,18.3172191 L109.249274,19.7842368 C109.415924,19.8904168 109.506824,19.8709144 109.615038,19.708394 L109.887738,19.2966755 C109.995953,19.1341551 109.97431,19.0474776 109.80766,18.9412975 L108.396546,18.0593534 C108.17146,17.9228362 108.17146,17.9228362 108.316467,17.7039754 L109.833631,15.4135209 C109.97431,15.1989939 109.97431,15.1989939 110.199396,15.3398449 L111.612674,16.2196222 C111.77716,16.3236352 111.870224,16.3041328 111.976274,16.1437793 L112.251138,15.7342278 C112.357188,15.5695405 112.333381,15.4828629 112.168896,15.3766829 L110.757781,14.4947387 C110.532696,14.3560546 110.532696,14.3560546 110.675538,14.1393607 L111.922167,12.2584577 Z M119.631353,27.806245 L125.59396,21.623968 C125.732474,21.4852839 125.725981,21.3942725 125.583138,21.2642562 L125.24551,20.9565508 C125.111324,20.8330353 125.065874,20.84387 124.95766,20.9002104 L118.966917,24.4214863 C118.910646,24.4604912 118.854374,24.4063177 118.889003,24.3543112 L122.115953,18.3193861 C122.17006,18.2067052 122.189538,18.1763681 122.044531,18.0398509 L121.704738,17.7343125 C121.56406,17.6021292 121.468831,17.6064631 121.334646,17.7473142 L115.365546,23.9274242 C115.233524,24.0682752 115.233524,24.1571197 115.378531,24.2914699 L115.802731,24.6750181 C115.947738,24.8093684 116.040803,24.8050345 116.177153,24.6641834 L119.339174,21.3856047 C119.375967,21.3465998 119.434403,21.3812709 119.39761,21.4397782 L117.146753,25.6501407 C117.055853,25.8191619 117.133767,25.886337 117.23116,25.9751815 L117.404303,26.1312011 C117.501696,26.2222126 117.577446,26.2893877 117.739767,26.1962093 L121.925496,23.7389005 C121.979603,23.7020625 122.01856,23.7540691 121.983931,23.793074 L118.817581,27.0694857 C118.683396,27.2103368 118.68556,27.2991813 118.832731,27.4335315 L119.254767,27.8192466 C119.39761,27.947096 119.492838,27.947096 119.631353,27.806245 L119.631353,27.806245 Z M123.663417,32.3936548 C123.535724,32.5518414 123.587667,32.6081818 123.698046,32.7360312 L124.072467,33.1715859 C124.15471,33.2690982 124.243446,33.3666105 124.388453,33.1975892 L130.058881,26.4779114 C130.190903,26.3240587 130.193067,26.2698852 130.058881,26.1116987 L129.602217,25.5786317 C129.465867,25.424779 129.407431,25.4182782 129.232124,25.5114566 L121.416888,29.7521562 C121.219938,29.8605032 121.304346,29.9601823 121.393081,30.0576946 L121.765338,30.4910824 C121.871388,30.6210987 121.92766,30.6774392 122.100803,30.5864277 L122.825838,30.185544 C123.06391,30.0555277 123.06391,30.0555277 123.221903,30.2440514 L124.21531,31.3968629 C124.36681,31.5745519 124.36681,31.5745519 124.197996,31.7782442 L123.663417,32.3936548 Z M124.133067,29.7391546 C123.962088,29.5419631 123.962088,29.5419631 124.189338,29.405446 L128.10886,27.1756657 C128.16946,27.1409947 128.221403,27.2038359 128.178117,27.2536755 L125.221703,30.610264 C125.04856,30.8031216 125.04856,30.8031216 124.877581,30.6037632 L124.133067,29.7391546 Z M127.565624,37.6311464 C127.422781,37.7698305 127.468231,37.8326717 127.561296,37.9756897 L127.907581,38.4762526 C127.966017,38.5607632 128.082888,38.6127698 128.227896,38.4545832 C131.073931,35.6787344 131.073931,35.6592319 131.073931,35.6592319 C131.682096,35.869425 132.452581,35.7827474 133.342103,35.2063417 L133.640774,35.0134841 C135.155774,34.0253599 135.160103,32.8313765 134.54761,31.9472654 L133.664581,30.6644375 C133.556367,30.504084 133.463303,30.4867485 133.300981,30.5950955 L126.044131,35.3103547 C125.88181,35.4208686 125.855838,35.4967115 125.97271,35.6678997 L126.295188,36.1381254 C126.401238,36.2876442 126.498631,36.3179814 126.663117,36.2053005 L129.44206,34.4002404 C129.660653,34.2572224 129.660653,34.2572224 129.807824,34.4717493 L130.132467,34.9419751 C130.162767,34.9831469 130.208217,35.0459882 130.125974,35.1304988 L127.565624,37.6311464 Z M130.751453,33.5508003 L133.060746,32.0491115 C133.279338,31.9082605 133.279338,31.9082605 133.42651,32.1206205 L133.692717,32.5020018 C134.015196,32.9743945 133.965417,33.5009607 133.065074,34.0882011 L132.681996,34.3395661 C131.779488,34.9246396 131.255731,34.766453 130.933253,34.2983942 L130.667046,33.914846 C130.519874,33.6981521 130.519874,33.6981521 130.751453,33.5508003 L130.751453,33.5508003 Z M1.49598134,94.1340808 L4.19700992,93.4081562 C4.45239563,93.3366472 4.45239563,93.3366472 4.51948849,93.5858452 L4.96965992,95.156876 C5.02809563,95.3432327 5.1081742,95.3887384 5.29646706,95.334565 L5.78126706,95.2067156 C5.97388849,95.154709 6.02150277,95.0745323 5.96739563,94.8881755 L5.51505992,93.3171448 C5.44796706,93.0722807 5.44796706,93.0722807 5.70335277,93.0007717 L7.92174563,92.4048634 C8.17496706,92.3376883 8.17496706,92.3376883 8.2442242,92.5847194 L8.69439563,94.1579171 C8.7441742,94.33994 8.82641706,94.3854457 9.0168742,94.3356061 L9.50383849,94.2055898 C9.69429563,94.1557502 9.7440742,94.0755734 9.68996706,93.8892167 L8.9411242,91.2758882 C8.89134563,91.0895315 8.81126706,91.0461927 8.61648134,91.0981992 L0.206067059,93.3604835 C0.0134456303,93.4124901 -0.0341686554,93.4926668 0.0221027732,93.6790236 L0.766617059,96.2901851 C0.820724202,96.4743749 0.900802773,96.5198806 1.08909563,96.470041 L1.5782242,96.3378577 C1.76651706,96.2858512 1.81629563,96.2100083 1.7600242,96.0236516 L1.30985277,94.4504539 C1.24059563,94.2012559 1.24059563,94.2012559 1.49598134,94.1340808 L1.49598134,94.1340808 Z M5.51289563,102.455127 C7.35686706,101.501673 7.67934563,98.7106559 8.99955992,98.0497395 C9.5319742,97.783206 10.0881956,97.9695628 10.2786528,98.4506233 C10.4171671,98.7973335 10.3067885,99.2675593 9.80250992,99.5275919 C9.58608134,99.631605 9.54279563,99.6901124 9.61205277,99.8721352 L9.79385277,100.327192 C9.88908134,100.563389 9.96266706,100.565556 10.2851456,100.416037 C11.2309385,99.952312 11.5685671,98.9165151 11.2439242,98.0887444 C10.8132313,97.0139427 9.63369563,96.6022243 8.59483849,97.0616154 C6.7140742,97.891553 6.44353849,101.198302 4.7445742,101.63169 C4.25544563,101.757372 3.70788134,101.592685 3.48279563,101.029281 C3.34428134,100.669569 3.35510277,100.056325 4.16021706,99.7009471 C4.37664563,99.6056017 4.41343849,99.5124234 4.3506742,99.3564038 L4.15588849,98.8645086 C4.07148134,98.6608163 3.99140277,98.6348131 3.78363134,98.7128229 C2.69066706,99.100705 2.08466706,100.288188 2.52401706,101.391159 C3.01530992,102.624148 4.45455992,103.003362 5.51289563,102.455127 L5.51289563,102.455127 Z M11.9884385,102.515801 L12.3996528,103.306734 C12.5143599,103.525594 12.5143599,103.525594 12.2784528,103.640442 L5.41550277,107.016533 C5.24019563,107.098877 5.20989563,107.187721 5.29863134,107.358909 L5.5626742,107.861639 C5.64924563,108.034994 5.73798134,108.063165 5.91545277,107.97432 L12.7784028,104.60473 C13.0143099,104.489882 13.0143099,104.489882 13.1355099,104.717411 L13.5380671,105.495342 C13.6289671,105.668697 13.7155385,105.6947 13.8930099,105.61019 L14.3410171,105.389162 C14.5184885,105.302484 14.5466242,105.215807 14.4600528,105.042452 L12.9060956,102.067244 C12.8195242,101.891722 12.7307885,101.865719 12.5533171,101.954564 L12.1053099,102.171258 C11.9278385,102.262269 11.8997028,102.34678 11.9884385,102.515801 L11.9884385,102.515801 Z M8.08839563,111.05354 C7.78323134,111.231229 7.67285277,111.608277 7.85248849,111.902981 C8.04078134,112.202018 8.43684563,112.29953 8.7441742,112.124008 C9.04933849,111.946319 9.14240277,111.567105 8.9562742,111.268067 C8.77880277,110.971197 8.39788849,110.875851 8.08839563,111.05354 L8.08839563,111.05354 Z M21.0784385,114.529311 C20.2192171,113.508682 18.9769171,113.72971 18.0852313,114.438299 C17.9315671,114.559648 17.9229099,114.648492 18.0484385,114.798011 L18.3817385,115.196728 C18.5072671,115.34408 18.5981671,115.354914 18.7539956,115.233566 L18.8254171,115.175058 C19.4465671,114.700499 19.9724885,114.793677 20.2711599,115.153389 C20.5828171,115.521769 20.4875885,115.957323 20.2451885,116.232525 C19.6370242,116.932446 18.4748028,116.811097 17.4770671,116.85877 C16.3451456,116.910777 15.1374742,116.774259 14.2392956,117.487182 L12.8325099,118.598822 C12.6810099,118.718004 12.6745171,118.809015 12.7978813,118.960701 L14.9686599,121.545859 C15.0941885,121.693211 15.1872528,121.704046 15.3409171,121.58053 L15.7326528,121.272825 C15.8841528,121.149309 15.8928099,121.060465 15.7651171,120.910946 L14.2977313,119.164393 C14.1289171,118.962868 14.1289171,118.962868 14.3323599,118.802514 L14.9470171,118.312786 C15.4599528,117.907569 16.3667885,117.933572 17.3991528,117.898901 C18.5375671,117.855562 19.9032313,117.961742 20.7754385,117.209814 C21.3900956,116.668079 21.9722885,115.593278 21.0784385,114.529311 L21.0784385,114.529311 Z M25.3529028,122.538317 C26.6363242,121.281493 26.3939242,120.109179 25.6126171,119.357251 C24.8334742,118.611824 23.6279671,118.392963 22.3423813,119.651954 L19.2972313,122.648831 C18.0159742,123.907823 18.2583742,125.07797 19.0396813,125.827731 C19.8188242,126.575325 21.0264956,126.796352 22.3077528,125.535194 L25.3529028,122.538317 Z M19.7625528,125.112641 C19.3470099,124.716091 19.2907385,124.191692 20.0482385,123.444098 L23.1691385,120.373545 C23.9352956,119.623784 24.4763671,119.673624 24.8897456,120.074508 C25.3052885,120.46889 25.3615599,120.997624 24.6018956,121.745217 L21.4809956,124.811436 C20.7170028,125.561197 20.1780956,125.511357 19.7625528,125.112641 L19.7625528,125.112641 Z M30.8177242,126.930703 C31.9496456,125.541695 31.5795528,124.404052 30.7203313,123.743135 C29.8589456,123.082219 28.6361242,122.991207 27.5020385,124.380215 L24.8075028,127.68263 C23.6777456,129.069471 24.0456742,130.209281 24.9070599,130.872365 C25.7684456,131.531114 26.9912671,131.624292 28.1231885,130.233118 L30.8177242,126.930703 Z M27.2206813,129.604705 C26.5475885,130.430309 26.0000242,130.43681 25.5455242,130.085766 C25.0888599,129.736889 24.9698242,129.216823 25.6429171,128.393386 L28.4023813,125.010795 C29.0776385,124.185191 29.6230385,124.17869 30.0753742,124.527567 C30.5342028,124.880778 30.6510742,125.39651 29.9801456,126.222113 L27.2206813,129.604705 Z M36.1158956,130.915703 L36.5271099,130.289458 C37.0790028,129.442185 37.2759528,128.176692 36.0791028,127.446434 C34.9255385,126.737845 33.8195885,127.333753 33.2049313,128.278539 C33.0988813,128.441059 33.1161956,128.527737 33.2850099,128.63175 L33.7351813,128.906951 C33.8996671,129.010964 33.9927313,128.991461 34.0987813,128.826774 L34.1485599,128.753098 C34.5835813,128.10735 35.1138313,128.035841 35.5163885,128.285039 C35.9276028,128.538571 35.9838742,128.980627 35.8431956,129.320836 C35.8193885,129.379344 35.7522956,129.50936 35.7133385,129.561366 L35.2285385,130.311127 C34.9190456,130.757517 34.4558885,130.915703 33.9516099,130.634001 L33.8433956,130.566826 C33.6724171,130.46498 33.5793528,130.484482 33.4733028,130.647003 L33.2070956,131.058721 C33.1075385,131.212574 33.1161956,131.294918 33.2438885,131.385929 L33.4040456,131.481274 C33.8931742,131.784646 33.9581028,132.265706 33.6464456,132.742433 L32.8889456,133.901745 C32.8543171,133.955919 32.7655813,134.070766 32.7179671,134.118439 C32.4625813,134.38714 32.0275599,134.525824 31.6120171,134.274459 C31.2116242,134.027428 31.0514671,133.531199 31.4605171,132.874616 L31.5124599,132.798773 C31.6185099,132.634086 31.5968671,132.545241 31.4280528,132.441228 L30.9822099,132.170361 C30.8133956,132.066348 30.7246599,132.08585 30.6186099,132.248371 C30.0039528,133.193156 29.9217099,134.421811 31.0752742,135.128233 C32.2699599,135.860658 33.3607599,135.147735 33.9104885,134.302629 L34.5987313,133.249497 C34.9839742,132.655755 35.0186028,132.311212 34.9947956,131.869156 C35.4146671,131.702302 35.7219956,131.524613 36.1158956,130.915703 L36.1158956,130.915703 Z M46.7230599,132.770603 C46.5390956,132.699094 46.4525242,132.733765 46.3767742,132.911454 L45.1041742,135.90183 C45.0024528,136.135859 45.0024528,136.135859 44.7578885,136.038347 L43.6367885,135.587624 C43.3943885,135.490112 43.3943885,135.490112 43.4939456,135.249581 L44.7643813,132.265706 C44.8401313,132.08585 44.8033385,132.00134 44.6215385,131.925497 L44.0847956,131.71097 C43.8986671,131.639461 43.8142599,131.674132 43.7385099,131.851821 L40.4055099,139.680972 C40.3297599,139.858661 40.3665528,139.941004 40.5548456,140.01468 L41.0872599,140.231374 C41.2690599,140.302883 41.3577956,140.270379 41.4335456,140.090523 L42.8966028,136.651591 C42.9983242,136.415394 42.9983242,136.415394 43.2407242,136.512907 L44.3661528,136.965797 C44.6107171,137.061142 44.6107171,137.061142 44.5068313,137.297339 L43.0437742,140.738438 C42.9680242,140.918294 43.0069813,141.002804 43.1887813,141.074313 L43.7276885,141.28884 C43.9073242,141.364683 43.9960599,141.327845 44.0696456,141.147989 L47.4048099,133.323173 C47.4783956,133.145484 47.4416028,133.06314 47.2576385,132.987297 L46.7230599,132.770603 Z M50.3850313,134.044763 C50.1902456,133.99059 50.1101671,134.033929 50.0517313,134.215951 L47.5584742,142.335472 C47.5000385,142.517495 47.5476528,142.599838 47.7359456,142.651845 L50.4088385,143.429776 C50.5949671,143.486116 50.6815385,143.440611 50.7356456,143.258588 L50.8806528,142.790529 C50.9390885,142.606339 50.8958028,142.526162 50.7031813,142.471989 L49.0951171,142.00393 C48.8418956,141.932421 48.8418956,141.932421 48.9154813,141.683223 L49.7184313,139.078563 C49.7941813,138.829365 49.7941813,138.829365 50.0474028,138.90304 L51.6576313,139.371099 C51.8480885,139.423106 51.9260028,139.381934 51.9866028,139.197744 L52.1294456,138.731852 C52.1857171,138.545496 52.1402671,138.465319 51.9519742,138.411145 L50.3417456,137.945253 C50.0885242,137.871578 50.0885242,137.871578 50.1664385,137.624546 L50.8243813,135.483611 C50.9001313,135.238747 50.9001313,135.238747 51.1533528,135.312423 L52.7614171,135.778314 C52.9497099,135.834655 53.0341171,135.791316 53.0882242,135.607126 L53.2332313,135.139067 C53.2895028,134.954878 53.2462171,134.874701 53.0579242,134.820527 L50.3850313,134.044763 Z M57.6981528,135.84549 L56.1398671,135.55512 C55.9429171,135.518282 55.8650028,135.570288 55.8303742,135.756645 L54.1876813,144.086359 C54.1508885,144.274882 54.1876813,144.348558 54.3976171,144.387563 L54.9689885,144.491576 C55.1507885,144.526247 55.2395242,144.478575 55.2806456,144.290051 L55.9082885,141.095983 C55.9580671,140.846785 55.9580671,140.846785 56.2199456,140.89229 L56.7891528,140.99847 C56.8410956,141.009305 56.9190099,141.024474 56.9233385,141.141488 L56.9558028,144.664931 C56.9558028,144.862123 57.0337171,144.877291 57.2068599,144.907628 L57.8150242,145.020309 C57.9189099,145.039812 58.0336171,144.99864 58.0249599,144.784113 C57.9860028,140.868454 57.9795099,140.853286 57.9795099,140.840284 C58.5552099,140.582418 59.0356813,139.990844 59.2369599,138.968049 L59.3040528,138.630006 C59.6481742,136.889954 58.7759671,136.042681 57.6981528,135.84549 L57.6981528,135.84549 Z M58.2219099,138.376474 L58.1353385,138.81853 C57.9318956,139.85216 57.4492599,140.101358 56.8778885,139.995178 L56.4082385,139.9085 C56.1506885,139.860828 56.1506885,139.860828 56.2047956,139.596461 L56.7263885,136.946295 C56.7783313,136.692763 56.7783313,136.692763 57.0380456,136.740435 L57.5033671,136.82928 C58.0747385,136.93546 58.4275171,137.340677 58.2219099,138.376474 L58.2219099,138.376474 Z M67.8897742,136.972298 L67.4266171,136.944128 C67.2404885,136.933293 67.2166813,136.965797 67.1669028,137.080645 L64.8294742,143.486116 C64.8121599,143.551125 64.7342456,143.544624 64.7255885,143.481783 L63.2906671,136.82928 C63.2603671,136.710098 63.2495456,136.671093 63.0504313,136.655925 L62.5894385,136.627755 C62.3946528,136.61692 62.3210671,136.675427 62.3080813,136.866118 L61.7258885,145.31718 C61.7129028,145.505704 61.7713385,145.577213 61.9704528,145.590214 L62.5504813,145.627052 C62.7474313,145.640054 62.8188528,145.577213 62.8318385,145.386522 L63.1413313,140.907459 C63.1456599,140.855453 63.2127528,140.848952 63.2192456,140.911793 L64.2278028,145.555543 C64.2645956,145.739733 64.3706456,145.746234 64.5005028,145.754902 L64.7407385,145.77007 C64.8727599,145.778738 64.9766456,145.785239 65.0415742,145.609717 L66.6756099,141.134988 C66.6907599,141.074313 66.7556885,141.091649 66.7535242,141.143655 L66.4440313,145.622718 C66.4288813,145.815576 66.4938099,145.882751 66.6907599,145.895753 L67.2686242,145.936924 C67.4699028,145.945592 67.5413242,145.887085 67.5521456,145.696394 L68.1343385,137.245332 C68.1494885,137.054641 68.0867242,136.987466 67.8897742,136.972298 L67.8897742,136.972298 Z M72.8438242,136.796776 C71.7486956,136.85745 70.7726028,137.574707 70.8699956,139.342929 L71.1059028,143.544624 C71.2076242,145.312846 72.2594671,145.92609 73.3545956,145.867582 C74.4497242,145.813409 75.4258171,145.091818 75.3262599,143.323596 L75.0925171,139.119734 C74.9907956,137.353679 73.9411171,136.740435 72.8438242,136.796776 L72.8438242,136.796776 Z M73.2961599,144.87079 C72.7161313,144.901128 72.2746171,144.589088 72.2161813,143.538123 L71.9759456,139.236749 C71.9153456,138.185784 72.3200671,137.828239 72.9000956,137.795735 C73.4822885,137.769731 73.9238028,138.079604 73.9800742,139.130569 L74.2224742,143.43411 C74.2809099,144.485075 73.8805171,144.838286 73.2961599,144.87079 L73.2961599,144.87079 Z M78.7328456,138.250792 C78.5726885,137.691722 78.8843456,137.201993 79.4037742,137.121817 C79.7825242,137.061142 80.2326956,137.269168 80.3863599,137.804402 C80.4512885,138.029764 80.4989028,138.086104 80.6958528,138.055767 L81.1936385,137.979924 C81.4533528,137.938753 81.4706671,137.871578 81.3862599,137.533535 C81.1157242,136.532409 80.1461242,135.992841 79.2414528,136.131525 C78.0684099,136.311381 77.4061385,137.349345 77.6485385,138.430648 C78.0900528,140.393894 81.3646171,141.347348 81.4403671,143.052729 C81.4685028,143.542457 81.1849813,144.025684 80.5724885,144.12103 C80.1807528,144.179537 79.5682599,144.04302 79.3756385,143.20008 C79.3280242,142.974719 79.2392885,142.922712 79.0683099,142.948716 L78.5337313,143.028892 C78.3108099,143.06573 78.2696885,143.137239 78.3021528,143.351766 C78.4623099,144.474241 79.5314671,145.295511 80.7304813,145.109154 C82.0788313,144.905461 82.7670742,143.6183 82.4381028,142.500159 C81.8602385,140.541246 79.1202528,139.650634 78.7328456,138.250792 L78.7328456,138.250792 Z M84.6651528,135.128233 L84.1046028,135.260416 C83.9098171,135.310256 83.8600385,135.383932 83.9076528,135.570288 L85.9637242,143.804656 C86.0091742,143.997514 86.0935813,144.04302 86.2818742,143.997514 L86.8510813,143.865331 C87.0415385,143.819825 87.0934813,143.741815 87.0458671,143.553292 L84.9876313,135.318923 C84.9421813,135.132567 84.8621028,135.084894 84.6651528,135.128233 L84.6651528,135.128233 Z M93.6815671,141.618215 L93.5257385,141.156657 C93.4629742,140.972467 93.3785671,140.933462 93.1924385,140.994137 L91.6103456,141.4947 C91.3463028,141.581377 91.3463028,141.581377 91.2575671,141.325678 L88.8660313,134.237621 C88.8054313,134.055598 88.7188599,134.016593 88.5327313,134.072933 L87.9786742,134.250622 C87.7903813,134.311297 87.7470956,134.389307 87.8098599,134.573496 L90.5282028,142.623675 C90.5909671,142.810031 90.6753742,142.846869 90.8615028,142.790529 L93.5127528,141.943256 C93.7010456,141.882582 93.7421671,141.802405 93.6815671,141.618215 L93.6815671,141.618215 Z M99.4667028,138.79036 C99.3887885,138.614838 99.3043813,138.578 99.1204171,138.656009 L97.5945956,139.29959 C97.3370456,139.40577 97.3370456,139.40577 97.2266671,139.156572 L94.1771885,132.311212 C94.0949456,132.13569 94.0105385,132.101019 93.8287385,132.179029 L93.2963242,132.402223 C93.1123599,132.478066 93.0777313,132.562577 93.1534813,132.742433 L96.6206671,140.51741 C96.7007456,140.695099 96.7894813,140.727603 96.9691171,140.65176 L99.5294671,139.574792 C99.7134313,139.498949 99.7480599,139.414438 99.6679813,139.238916 L99.4667028,138.79036 Z M105.091681,134.053431 L102.983667,130.371802 C102.098474,128.82244 100.873488,128.718427 99.9147099,129.238493 C98.9516028,129.756391 98.3975456,130.818191 99.2849028,132.367552 L101.397246,136.051349 C102.280274,137.60071 103.503096,137.704723 104.464038,137.184658 C105.424981,136.668926 105.979038,135.602792 105.091681,134.053431 L105.091681,134.053431 Z M103.961924,136.309214 C103.453317,136.582249 102.916574,136.491237 102.388488,135.570288 L100.230696,131.799814 C99.7047742,130.876698 99.9060528,130.38697 100.416824,130.113936 C100.921103,129.838735 101.46001,129.929746 101.988096,130.850695 L104.148053,134.623336 C104.676138,135.544285 104.468367,136.034013 103.961924,136.309214 L103.961924,136.309214 Z M118.027617,102.086747 C118.027617,102.086747 113.934953,98.0107346 108.961424,97.393157 C108.961424,97.393157 97.7807242,94.019233 94.5148171,102.951356 C94.4628742,103.447585 93.3158028,109.528015 93.3158028,109.528015 C93.3158028,109.528015 93.3136385,110.325449 94.9671528,108.587564 C94.9671528,108.587564 95.2008956,110.548644 92.6708456,112.238856 C92.6708456,112.238856 90.6299242,113.593193 91.2921956,115.006037 C91.2921956,115.006037 91.2835385,115.933487 93.7767956,116.793762 C93.7767956,116.793762 96.9669528,116.824099 97.2569671,120.234861 C97.2569671,120.234861 97.5578028,122.141767 98.4732956,122.737676 C98.4732956,122.737676 99.2935599,123.389924 99.9558313,123.012877 C99.9558313,123.012877 100.479588,122.527482 100.873488,123.168896 C100.873488,123.168896 101.063946,123.868818 102.591931,123.922991 C102.591931,123.922991 103.71736,123.502605 104.680467,124.482061 C104.680467,124.482061 105.842688,125.030297 106.61101,124.148353 C106.61101,124.148353 108.985231,121.253322 111.61051,121.600033 C111.61051,121.600033 115.729146,122.952203 116.68576,121.170979 C116.68576,121.170979 116.938981,116.030999 115.698846,114.39496 C115.588467,113.952905 114.772531,113.075295 115.618767,110.802176 C115.618767,110.802176 116.707403,109.131466 117.062346,111.398084 C117.062346,111.398084 117.765738,114.141429 118.48861,112.925776 C118.48861,112.925776 121.33681,105.56035 118.027617,102.086747 L118.027617,102.086747 Z M95.5147171,105.308985 C95.8242099,104.834426 96.5254385,102.90585 96.5254385,102.90585 C97.2180099,104.052161 96.8349313,105.80088 96.8349313,105.80088 C96.1445242,106.736998 95.2268671,107.257063 95.2268671,107.257063 C94.9887956,106.871348 95.4584456,105.519178 95.5147171,105.308985 L95.5147171,105.308985 Z M97.5166813,115.198895 C97.3976456,115.168558 95.3826956,114.158764 95.1251456,111.798967 C95.1251456,111.798967 95.5341956,108.344867 99.5446171,109.257148 C99.5446171,109.257148 103.284503,109.642863 103.585338,111.707956 C103.509588,112.026496 103.606981,113.105632 101.457846,113.972407 C101.457846,113.972407 99.1160885,115.727628 97.5166813,115.198895 L97.5166813,115.198895 Z M104.03551,121.70838 C103.122181,121.500353 102.946874,120.724589 102.946874,120.724589 C102.784553,120.081008 101.992424,120.41255 101.992424,120.41255 C101.483817,120.761427 100.68736,120.611908 100.68736,120.611908 C99.1290742,119.942324 100.734974,118.408131 100.734974,118.408131 C101.128874,117.924904 103.643774,115.885814 103.643774,115.885814 C104.409931,115.253068 104.786517,116.174017 104.786517,116.174017 C105.026753,116.538063 105.650067,119.944491 105.650067,119.944491 C105.760446,122.143934 104.03551,121.70838 104.03551,121.70838 L104.03551,121.70838 Z M111.662453,118.332289 C111.662453,118.332289 108.695217,119.127555 106.89886,116.626908 C106.89886,116.626908 105.55051,113.994077 105.466103,113.14247 C105.466103,113.14247 105.481253,111.74046 108.104367,111.341743 C108.104367,111.341743 112.17106,111.558437 113.20126,113.72971 C113.348431,114.141429 114.802831,117.058128 111.662453,118.332289 L111.662453,118.332289 Z M106.286367,30.1942118 C106.15651,30.1660416 105.801567,30.1725424 105.569988,30.6297665 L103.832067,34.0817003 C103.386224,34.9636445 102.345203,35.2930192 101.553074,35.4208686 C101.457846,35.4338703 101.375603,35.4988784 101.343138,35.5898899 C101.315003,35.6830682 101.336646,35.7827474 101.405903,35.8499225 C101.405903,35.8499225 101.830103,36.2898112 101.946974,37.0439059 C102.009738,37.4361219 101.858238,37.8868452 101.739203,38.2530579 C101.59636,38.6799449 101.483817,39.0179874 101.721888,39.2346813 C101.760846,39.2671853 101.806296,39.2910217 101.860403,39.2996894 C101.875553,39.3018564 101.912346,39.3040233 101.912346,39.3040233 C102.21751,39.3040233 102.407967,39.030989 102.652531,38.6842788 C102.871124,38.3679057 103.148153,37.9756897 103.50526,37.7849991 C104.212981,37.4014509 104.784353,37.4599582 104.812488,37.468626 C104.918538,37.4751268 105.00511,37.4361219 105.059217,37.3559451 C105.113324,37.2736015 105.117653,37.1739223 105.072203,37.0894117 C104.684796,36.402492 104.316867,35.3970323 104.760546,34.519422 L106.498467,31.073989 C106.70191,30.6601036 106.539588,30.3610661 106.407567,30.2505522 C106.375103,30.2245489 106.331817,30.2050465 106.286367,30.1942118 L106.286367,30.1942118 Z M105.933588,42.5414302 L107.108796,43.0983335 C107.191038,43.1373384 107.271117,43.1546739 107.349031,43.1546739 C107.55031,43.1546739 107.710467,43.0354923 107.788381,42.9336461 C107.803531,42.9098098 107.816517,42.8838065 107.825174,42.8556363 C107.890103,42.6519441 107.831667,42.370242 107.548146,42.2337248 L106.366446,41.6724876 C105.911946,41.4536268 105.303781,40.4720034 105.329753,39.8045862 C105.331917,39.7157417 105.288631,39.635565 105.212881,39.5835584 C105.139296,39.5337188 105.046231,39.5250511 104.961824,39.5597221 C104.961824,39.5597221 104.228131,39.8544258 103.643774,40.0754536 C103.438167,40.1556303 103.178453,40.1122916 102.949038,40.060285 C102.827838,40.0342817 102.708803,40.0061115 102.598424,40.0061115 C102.390653,40.0061115 102.273781,40.1014569 102.211017,40.1816336 C102.193703,40.2054699 102.176388,40.2336401 102.169896,40.2661442 C102.083324,40.5608479 102.327888,40.7537055 102.522674,40.9053912 C102.693653,41.0419084 102.888438,41.1935941 102.95986,41.4319574 C103.14166,42.0170309 103.347267,42.7581241 103.347267,42.7581241 C103.371074,42.8426347 103.436003,42.9098098 103.524738,42.9336461 C103.606981,42.9639833 103.704374,42.9444808 103.771467,42.8881404 C104.100438,42.6237739 104.736738,42.439584 105.325424,42.439584 C105.576481,42.439584 105.79291,42.4742551 105.933588,42.5414302 L105.933588,42.5414302 Z M102.734774,44.5978553 C102.678503,44.4960091 102.559467,44.4418357 102.44476,44.4635051 C102.330053,44.4895083 102.245646,44.5848536 102.236988,44.6997014 C102.234824,44.7300386 102.20236,45.3866211 102.607081,47.3108629 L102.713131,47.8070919 C103.03561,49.3651211 103.11136,49.7356676 103.632953,49.7356676 L103.695717,49.7335007 C103.829903,49.7204991 103.938117,49.6598248 104.011703,49.5623125 C104.20216,49.2936121 104.09611,48.8428888 103.85371,47.9262736 C103.801767,47.7182474 103.743331,47.4993866 103.689224,47.271858 C103.423017,46.1623852 102.964188,45.0182414 102.734774,44.5978553 L102.734774,44.5978553 Z M99.2675885,32.5020018 C99.5359599,33.6223093 99.9947885,34.7599522 100.222038,35.1781715 C100.267488,35.2605151 100.358388,35.3146886 100.455781,35.3146886 C100.455781,35.3146886 100.49041,35.3103547 100.509888,35.3081878 C100.628924,35.2843515 100.713331,35.1868392 100.71766,35.0698245 C100.721988,35.0438212 100.752288,34.3894057 100.35406,32.4629969 L100.239353,31.9299299 C99.9212028,30.4022379 99.8432885,30.0403591 99.3281885,30.0403591 L99.2567671,30.042526 C99.1312385,30.0555277 99.0230242,30.116202 98.9516028,30.2137142 C98.7589813,30.4802477 98.8650313,30.930971 99.0987742,31.8410854 C99.1528813,32.0512785 99.2113171,32.2723063 99.2675885,32.5020018 L99.2675885,32.5020018 Z M105.79291,37.8153362 C105.836196,37.9063477 105.92926,37.964855 106.030981,37.964855 C106.046131,37.964855 106.061281,37.9626881 106.061281,37.9626881 C106.561231,37.8760105 107.775396,37.5293003 108.83806,37.0482398 C109.054488,36.9528945 109.266588,36.8618831 109.470031,36.7773724 C110.366046,36.3981581 110.796738,36.2009667 110.89846,35.8910944 C110.933088,35.7740797 110.915774,35.654898 110.844353,35.5465511 C110.729646,35.3753629 110.578146,35.2908523 110.379031,35.2908523 C110.086853,35.2908523 109.703774,35.4750421 108.684396,35.9647703 L108.208253,36.1944658 C106.392417,37.0677423 105.879481,37.4946292 105.857838,37.5119648 C105.769103,37.5878076 105.743131,37.715657 105.79291,37.8153362 L105.79291,37.8153362 Z M95.1727599,36.8467145 C95.1554456,36.8662169 95.1467885,36.8878863 95.1402956,36.9160565 C95.0840242,37.0872447 95.1078313,37.3949501 95.4129956,37.540135 L96.5968599,38.105706 C97.0470313,38.3180661 97.6595242,39.3170249 97.6335528,39.9671066 C97.6292242,40.0537842 97.6725099,40.1382948 97.7482599,40.1881344 C97.7915456,40.2206385 97.8434885,40.2336401 97.8975956,40.2336401 C97.9322242,40.2336401 97.9646885,40.2293063 97.9993171,40.2141377 C97.9993171,40.2141377 98.7330099,39.9216009 99.3087099,39.6962393 C99.5208099,39.6203964 99.7826885,39.6615682 100.012103,39.7135748 C100.135467,39.741745 100.252338,39.7720821 100.364881,39.7720821 C100.570488,39.7720821 100.68736,39.6745699 100.752288,39.5943931 C100.771767,39.5705568 100.789081,39.5380527 100.795574,39.5077156 C100.875653,39.2108449 100.635417,39.0201543 100.440631,38.8663016 C100.26316,38.7297845 100.068374,38.5780987 99.9947885,38.3440693 C99.8238099,37.7611627 99.6073813,37.0135688 99.6073813,37.0135688 C99.5835742,36.9312251 99.5164813,36.86405 99.4299099,36.8402137 C99.3390099,36.8120435 99.2502742,36.8315459 99.1831813,36.8878863 C98.8671956,37.147919 98.2135813,37.3364427 97.6335528,37.3364427 C97.3824956,37.3364427 97.1725599,37.2996047 97.0340456,37.2367635 L95.8523456,36.6733594 C95.5753171,36.54551 95.2766456,36.6993626 95.1727599,36.8467145 L95.1727599,36.8467145 Z M96.8760528,41.8133387 C96.4064028,41.8935154 95.2030599,42.2380587 94.1165885,42.72562 C93.9023242,42.8231322 93.6880599,42.9119767 93.4846171,42.9986543 C92.5929313,43.3778686 92.1622385,43.5728931 92.0626813,43.8870993 C92.0280528,43.9997801 92.0453671,44.1211287 92.1146242,44.2229748 C92.2250028,44.39633 92.3851599,44.4830075 92.5821099,44.4830075 C92.8721242,44.4830075 93.2552028,44.2988177 94.2745813,43.8090895 L94.7572171,43.577227 C96.5643956,42.7061175 97.0751671,42.2770636 97.0968099,42.2597281 C97.1855456,42.1838852 97.2115171,42.0603697 97.1617385,41.9563566 C97.1097956,41.8501766 96.9972528,41.7938362 96.8760528,41.8133387 L96.8760528,41.8133387 Z M96.4648385,48.7042047 C96.2549028,49.1224239 96.4215528,49.4171276 96.5492456,49.5233076 C96.5838742,49.5514778 96.6249956,49.5688133 96.6661171,49.581815 C96.6855956,49.581815 96.7418671,49.5861489 96.7570171,49.5861489 C96.8825456,49.5861489 97.1898742,49.544977 97.3933171,49.1440933 L99.1290742,45.6986603 C99.5749171,44.8123822 100.615938,44.4808406 101.410231,44.359492 C101.507624,44.3443234 101.585538,44.2749814 101.618003,44.1861369 C101.648303,44.0951254 101.62666,43.9954462 101.557403,43.9261042 C101.557403,43.9261042 101.133203,43.4970503 101.009838,42.7321208 C100.949238,42.3377379 101.100738,41.8870146 101.221938,41.5229688 C101.362617,41.091748 101.47516,40.7558724 101.234924,40.5391785 C101.195967,40.5045075 101.085588,40.4785042 101.031481,40.4698365 C100.745796,40.4698365 100.553174,40.7428708 100.30861,41.089581 C100.087853,41.4059541 99.8086599,41.7981701 99.4558813,41.9931946 C98.7568171,42.3724089 98.1811171,42.3160685 98.1551456,42.3074008 C98.0534242,42.3139016 97.9581956,42.3442387 97.9062528,42.4244155 C97.8521456,42.5045922 97.8456528,42.6042714 97.8954313,42.688782 C98.2806742,43.3713678 98.6486028,44.3681597 98.2027599,45.2566047 L96.4648385,48.7042047 Z" id="Fill-1" fill="#1E252B" mask="url(#mask-2)"></path>
            </g>
        </g>
    </g>
</svg>