<?xml version="1.0" encoding="UTF-8" standalone="no"?>
<svg width="228px" height="46px" viewBox="0 0 228 46" version="1.1" xmlns="http://www.w3.org/2000/svg" xmlns:xlink="http://www.w3.org/1999/xlink">
    <!-- Generator: Sketch 42 (36781) - http://www.bohemiancoding.com/sketch -->
    <title>Page 1</title>
    <desc>Created with Sketch.</desc>
    <defs></defs>
    <g id="home" stroke="none" stroke-width="1" fill="none" fill-rule="evenodd">
        <g id="tablet" transform="translate(-271.000000, -2883.000000)" fill="#1E252B">
            <g id="Page-1" transform="translate(271.000000, 2883.000000)">
                <g id="Group-7" transform="translate(0.000000, 1.300800)">
                    <path d="M160.722985,20.0337501 C163.991687,24.453924 167.327097,28.7676631 167.327097,33.4403588 C167.327097,39.2191414 165.236211,44.3676631 157.514737,44.3676631 C148.419491,44.3676631 147.241674,38.1652283 147.241674,31.7248805 L154.179327,31.1363588 C154.179327,34.7405327 154.569153,38.517924 157.514737,38.517924 C159.611876,38.517924 160.391528,36.4476631 160.391528,33.7283588 C160.391528,30.840011 157.389659,27.3527066 154.712993,23.685924 C151.36716,19.267837 148.22979,14.8351414 148.22979,10.1728805 C148.22979,5.43757617 150.775124,0.122097907 157.448029,0.00314138508 C165.957494,-0.16798905 167.327097,6.68975008 167.327097,11.5231414 L160.391528,12.1137501 C160.391528,9.22748921 159.930825,5.8487066 157.579361,5.8487066 C155.74697,5.9113153 155.165358,7.68314139 155.165358,10.1728805 C155.165358,13.1196631 157.975441,16.4274892 160.722985,20.0337501 L160.722985,20.0337501 Z M142.353214,18.4330544 L142.353214,25.4014023 L135.803303,25.4014023 L135.803303,37.3325327 L144.902718,37.3325327 L144.902718,43.891837 L128.734318,43.891837 L128.734318,0.476880516 L144.902718,0.476880516 L144.902718,7.02992399 L135.803303,7.02992399 L135.803303,18.4330544 L142.353214,18.4330544 Z M117.792089,43.891837 L110.929483,21.2692283 L110.337447,19.267837 L109.939283,19.267837 L109.939283,21.2692283 L109.939283,43.891837 L103.464418,43.891837 L103.464418,0.476880516 L109.747497,0.476880516 L116.610103,23.0974023 L117.208392,25.1113153 L117.598218,25.1113153 L117.598218,23.0974023 L117.598218,0.476880516 L124.077252,0.476880516 L124.077252,43.891837 L117.792089,43.891837 Z M90.1832325,44.3405327 L90.1832325,38.0525327 C91.9134764,37.4932283 91.8134141,34.9784457 91.8134141,34.9784457 L91.8134141,9.39444573 C91.8134141,9.39444573 91.9134764,6.87548921 90.1832325,6.31409791 L90.1832325,0.0302718199 C98.9407684,0.495663124 98.8803141,9.39444573 98.8803141,9.39444573 L98.8803141,34.9784457 C98.8803141,34.9784457 98.9407684,43.8772283 90.1832325,44.3405327 L90.1832325,44.3405327 Z M87.0979782,9.39444573 L87.0979782,34.9784457 C87.0979782,34.9784457 87.0166776,37.1906196 88.4342269,37.9231414 L88.4342269,44.323837 C79.9810472,43.6643588 80.0373322,34.9784457 80.0373322,34.9784457 L80.0373322,9.39444573 C80.0373322,9.39444573 79.9810472,0.706445733 88.4342269,0.046967472 L88.4342269,6.44557617 C87.0166776,7.18018486 87.0979782,9.39444573 87.0979782,9.39444573 L87.0979782,9.39444573 Z M70.1415877,7.02992399 L70.1415877,43.891837 L63.0642646,43.891837 L63.0642646,7.02992399 L56.4017831,7.02992399 L56.4017831,0.476880516 L76.8124077,0.476880516 L76.8124077,7.02992399 L70.1415877,7.02992399 Z M47.7338864,20.0337501 C51.0067574,24.453924 54.3421674,28.7676631 54.3421674,33.4403588 C54.3421674,39.2191414 52.2450284,44.3676631 44.5318928,44.3676631 C35.4324773,44.3676631 34.25883,38.1652283 34.25883,31.7248805 L41.1881442,31.1363588 C41.1881442,34.7405327 41.5821395,38.517924 44.5318928,38.517924 C46.6206933,38.517924 47.4065992,36.4476631 47.4065992,33.7283588 C47.4065992,30.840011 44.3901378,27.3527066 41.7134713,23.685924 C38.3863998,19.267837 35.236522,14.8351414 35.236522,10.1728805 C35.236522,5.43757617 37.7881107,0.122097907 44.4589307,0.00314138508 C52.9683954,-0.16798905 54.3421674,6.68975008 54.3421674,11.5231414 L47.4065992,12.1137501 C47.4065992,9.22748921 46.950065,5.8487066 44.5923471,5.8487066 C42.7641255,5.9113153 42.1720902,7.68314139 42.1720902,10.1728805 C42.1720902,13.1196631 44.9821731,16.4274892 47.7338864,20.0337501 L47.7338864,20.0337501 Z M23.3937319,43.891837 L30.4627164,43.891837 L30.4627164,0.478967472 L23.3937319,0.478967472 L23.3937319,43.891837 Z M8.85968281,7.11966312 L8.85968281,0.566619646 C14.381871,1.13427182 19.4933868,4.46505443 19.4933868,13.4702718 C19.4933868,22.483837 14.381871,25.8626196 8.85968281,26.4386196 L8.85968281,19.9106196 C11.7427278,19.4932283 12.357694,17.8027936 12.357694,13.7060979 C12.357694,9.60940225 11.7427278,7.63305443 8.85968281,7.11966312 L8.85968281,7.11966312 Z M7.11693109,20.0254023 L7.11693109,26.5241849 L7.05647678,26.5241849 L7.05647678,43.891837 L0,43.891837 L0,0.476880516 L7.05647678,0.476880516 L7.11693109,0.476880516 L7.11693109,6.97775008 C7.09608477,6.97775008 7.07940772,6.96940225 7.05647678,6.96940225 L7.05647678,20.0337501 C7.07940772,20.0337501 7.09608477,20.0254023 7.11693109,20.0254023 L7.11693109,20.0254023 Z" id="Fill-1"></path>
                    <path d="M173.727826,5.11095652 C173.156638,5.68695652 172.447863,5.97704348 171.597333,5.97704348 C170.750973,5.97704348 170.048452,5.68695652 169.489771,5.12973913 C168.93109,4.56208696 168.643411,3.86086957 168.643411,3.00313043 C168.643411,2.14956522 168.93109,1.43791304 169.508533,0.864 C170.077637,0.285913043 170.782243,0 171.632772,0 C172.481217,0 173.185822,0.283826087 173.748673,0.849391304 C174.311523,1.41495652 174.590864,2.12243478 174.590864,2.97391304 C174.590864,3.83165217 174.307354,4.53704348 173.727826,5.11095652 L173.727826,5.11095652 Z M171.632772,5.33008696 C172.2936,5.33008696 172.839774,5.11930435 173.258784,4.67686957 C173.67988,4.23652174 173.894597,3.68347826 173.894597,3.00313043 C173.894597,2.32069565 173.67988,1.75721739 173.250446,1.30852174 C172.812673,0.85773913 172.272754,0.638608696 171.597333,0.638608696 C170.942759,0.638608696 170.39867,0.85773913 169.973406,1.28973913 C169.554395,1.73634783 169.343847,2.29147826 169.343847,2.97391304 C169.343847,3.65843478 169.558564,4.22191304 169.987998,4.66643478 C170.423686,5.11095652 170.969859,5.33008696 171.632772,5.33008696 L171.632772,5.33008696 Z M170.39867,4.53704348 L170.39867,1.30852174 L171.707819,1.30852174 C172.128914,1.30852174 172.443694,1.39408696 172.673003,1.58817391 C172.902312,1.76973913 173.016967,2.05356522 173.016967,2.42713043 C173.016967,2.87373913 172.839774,3.19513043 172.479132,3.38713043 L173.039898,4.53704348 L172.06846,4.53704348 L171.576487,3.51443478 L171.320077,3.51443478 L171.320077,4.53704348 L170.39867,4.53704348 Z M171.320077,2.8466087 L171.659872,2.8466087 C171.960059,2.8466087 172.105983,2.72556522 172.105983,2.4813913 C172.105983,2.24556522 171.960059,2.12243478 171.659872,2.12243478 L171.320077,2.12243478 L171.320077,2.8466087 Z" id="Fill-3"></path>
                    <path d="M211.248062,4.32803865 L213.908051,1.77777778 L217.664557,5.74090821 C217.583256,5.799343 217.506125,5.86195169 217.433163,5.93082126 C217.020406,6.327343 216.784843,6.85742995 216.774419,7.42925604 C216.759827,8.00108213 216.96829,8.54577778 217.360201,8.95899517 C217.789635,9.41186473 218.392093,9.65186473 219.015398,9.61847343 C219.521963,9.591343 220.001429,9.38264734 220.370408,9.03203865 C220.441286,8.96316908 220.510079,8.88803865 220.572618,8.80664734 L224.331208,12.7697778 L221.671218,15.3200386 L211.248062,4.32803865 Z" id="Fill-5"></path>
                </g>
                <polygon id="Fill-8" points="217.035259 0 214.79845 2.14747826 224.412769 12.2838261 226.649578 10.1405217"></polygon>
                <path d="M197.701216,6.10581643 L195.041227,3.55555556 L191.284721,7.51868599 C191.366022,7.57712077 191.443153,7.63972947 191.514031,7.70859903 C191.926788,8.10512077 192.162351,8.63520773 192.176943,9.20703382 C192.189451,9.7788599 191.980988,10.3235556 191.589077,10.7367729 C191.159643,11.1896425 190.557185,11.4296425 189.93388,11.3962512 C189.427315,11.3691208 188.94785,11.1604251 188.580954,10.8098164 C188.507992,10.7409469 188.439199,10.6658164 188.376661,10.5844251 L184.620155,14.5475556 L187.275975,17.0978164 L197.701216,6.10581643 Z" id="Fill-9"></path>
                <polygon id="Fill-11" points="190.684087 0 181.069767 10.1405217 183.306577 12.2838261 192.922981 2.14747826"></polygon>
                <g id="Group-29" transform="translate(181.053481, 9.957805)">
                    <path d="M15.896095,1.9053913 L13.894849,8.8817842e-16 L10.6511628,3.52486957 L12.8025022,5.57426087 C13.561308,4.15095652 14.6203007,2.90086957 15.896095,1.9053913" id="Fill-12"></path>
                    <g id="Group-16" transform="translate(31.269469, 18.473430)">
                        <path d="M15.6534961,9.75026087 C15.597211,7.8866087 14.8217282,6.15443478 13.4708871,4.87721739 C12.2784781,3.74817391 10.7212585,3.07826087 9.08690762,2.9906087 C8.08003072,2.93634783 7.05647678,3.1053913 6.12464661,3.48104348 L5.71814352,3.77530435 L1.75942877,0 C1.24452486,0.672 0.654574212,1.28973913 0,1.8386087 L0,4.93982609 L2.47862656,7.30434783 L2.12423924,7.77182609 C1.27787896,10.3366957 1.99707674,13.1937391 3.95454548,15.0469565 C5.14695456,16.176 6.70625873,16.848 8.33644037,16.9356522 C10.3856329,17.0462609 12.3660326,16.2490435 13.7689894,14.7464348 C15.0385298,13.389913 15.7076965,11.613913 15.6534961,9.75026087 M11.8219438,12.9036522 C10.9568218,13.8281739 9.74148183,14.3206957 8.48027992,14.2518261 C7.47548766,14.1996522 6.51864192,13.7843478 5.78485172,13.0893913 C4.95308385,12.3026087 4.47778792,11.2382609 4.44234919,10.0904348 C4.40691046,8.94678261 4.81966745,7.85321739 5.60140417,7.01843478 C6.46652614,6.09391304 7.68395079,5.60556522 8.94306806,5.67443478 C9.94786032,5.72869565 10.9047061,6.13982609 11.6405809,6.83269565 C12.4702641,7.61947826 12.9476447,8.68382609 12.9830834,9.83165217 C13.0164375,10.9794783 12.6036805,12.0709565 11.8219438,12.9036522" id="Fill-14"></path>
                    </g>
                    <path d="M13.1758456,25.0445604 L15.5961025,22.7405604 L15.5961025,19.5788213 C14.9498668,19.0403865 14.3703393,18.4351691 13.8637739,17.7777778 L9.93841329,21.5155169 L9.52982557,21.221256 C8.5979954,20.8456039 7.57444145,20.6786473 6.56964919,20.7308213 C4.93529829,20.8184734 3.37807875,21.4883865 2.18358504,22.61743 C0.834828625,23.8967343 0.0593457999,25.6289082 0.00306075619,27.4904734 C-0.0511396563,29.3562126 0.615942344,31.1301256 1.88965204,32.4887343 C3.29052424,33.989256 5.27092392,34.7864734 7.31803181,34.6758647 C8.95029808,34.5882126 10.5075176,33.9182995 11.7020113,32.7871691 C13.6594801,30.9339517 14.3786779,28.0769082 13.5344022,25.5141256 L13.1758456,25.0445604 Z M11.2142076,27.8327343 C11.1808535,28.9784734 10.703473,30.0449082 9.86962046,30.8316908 C9.13791489,31.5266473 8.18106915,31.9398647 7.17419225,31.9941256 C5.91715961,32.0629952 4.69765033,31.5704734 3.83461299,30.6459517 C3.05079164,29.8111691 2.63803466,28.7196908 2.67347339,27.5739517 C2.70891212,26.4261256 3.18420804,25.3617778 4.01806054,24.5729082 C4.74976611,23.8800386 5.70869649,23.4709952 6.71348875,23.4146473 C7.97260602,23.3457778 9.1921153,23.8362126 10.0551526,24.7586473 C10.8368894,25.59343 11.2475617,26.6869952 11.2142076,27.8327343 L11.2142076,27.8327343 Z" id="Fill-17"></path>
                    <path d="M33.2614642,5.61391304 L35.4524116,3.52486957 L32.2066408,-4.4408921e-16 L30.1782946,1.93252174 C31.4520043,2.93426087 32.504743,4.18434783 33.2614642,5.61391304" id="Fill-19"></path>
                    <path d="M18.5470945,8.88888889 C17.1274606,8.88888889 15.9767442,10.0450628 15.9767442,11.4725411 C15.9767442,12.8979324 17.1274606,14.0541063 18.5470945,14.0541063 C19.9625591,14.0541063 21.1153602,12.8979324 21.1153602,11.4725411 C21.1153602,10.0450628 19.9625591,8.88888889 18.5470945,8.88888889" id="Fill-21"></path>
                    <path d="M27.4209789,8.88888889 C26.001345,8.88888889 24.8527132,10.0450628 24.8527132,11.4725411 C24.8527132,12.8979324 26.001345,14.0541063 27.4209789,14.0541063 C28.8385281,14.0541063 29.9892446,12.8979324 29.9892446,11.4725411 C29.9892446,10.0450628 28.8385281,8.88888889 27.4209789,8.88888889" id="Fill-23"></path>
                    <path d="M19.9810602,26.3224734 C18.0757073,26.3224734 17.6629503,26.3308213 16.522657,26.3308213 L16.522657,20.0449082 C13.9585606,18.1249082 12.4263566,15.1071691 12.4263566,11.9600386 C12.4263566,6.3461256 17.1084384,1.77777778 22.8620206,1.77777778 C28.6156029,1.77777778 33.2976847,6.3461256 33.2976847,11.9600386 C33.2976847,15.1071691 31.7675653,18.1249082 29.2034689,20.0449082 L29.2034689,26.3308213 C29.2034689,26.3308213 27.6525032,26.3224734 25.7471503,26.3224734 L19.9810602,26.3224734 Z M26.783212,20.8504734 L26.783212,24.7301256 L27.5941336,24.7301256 L27.5941336,19.2351691 L27.9380977,18.999343 C30.2853925,17.3861256 31.6862647,14.7544734 31.6862647,11.9600386 C31.6862647,7.21429952 27.7296346,3.35551691 22.8620206,3.35551691 C17.9964913,3.35551691 14.0377765,7.21429952 14.0377765,11.9600386 C14.0377765,14.7544734 15.4407334,17.3861256 17.7901128,18.999343 L18.1319923,19.2351691 L18.1319923,24.7301256 L18.9429139,24.7301256 L18.9429139,20.8504734 L20.3250244,20.8504734 L20.3250244,24.7426473 L21.096338,24.7426473 L21.096338,20.8504734 L22.4763638,20.8504734 L22.4763638,24.7426473 L23.2476774,24.7426473 L23.2476774,20.8504734 L24.6297879,20.8504734 L24.6297879,24.7426473 L25.4031861,24.7426473 L25.4031861,20.8504734 L26.783212,20.8504734 Z" id="Fill-25"></path>
                    <path d="M22.2008016,16 C21.706744,16 21.3023256,16.4048696 21.3023256,16.9036522 C21.3023256,17.4045217 21.706744,17.8073043 22.2008016,17.8073043 C22.6969439,17.8073043 23.0992777,17.4045217 23.0992777,16.9036522 C23.0992777,16.4048696 22.6969439,16 22.2008016,16" id="Fill-27"></path>
                </g>
            </g>
        </g>
    </g>
</svg>